<svg width="304" height="180" viewBox="0 0 152 90" xmlns="http://www.w3.org/2000/svg">
  <rect x="33" y="5" width="86" height="80" fill="none" stroke="black" stroke-width="1" rx="5"/>
  <text x="76" y="12" text-anchor="middle" dominant-baseline="middle" font-family="Helvetica" font-size="8" font-weight="bold" fill="black">Asynchronous FIFO</text>
  <text x="76" y="21" text-anchor="middle" dominant-baseline="middle" font-family="Helvetica" font-size="6" font-weight="regular" fill="black">asynchronous_fifo</text>
      <text x="35" y="35" text-anchor="start" dominant-baseline="middle" font-family="Helvetica" font-size="6" font-weight="regular" fill="black">write_clock</text>
        <line x1="27" y1="35" x2="5" y2="35" stroke="black" stroke-width="1"/>
        <path d="M 33 35 l -6 +2.0 v -4 z" fill="black"/>
      <text x="117" y="35" text-anchor="end" dominant-baseline="middle" font-family="Helvetica" font-size="6" font-weight="regular" fill="black">read_clock</text>
        <line x1="125" y1="35" x2="147" y2="35" stroke="black" stroke-width="1"/>
        <path d="M 119 35 l +6 +2.0 v -4 z" fill="black"/>
      <text x="35" y="45" text-anchor="start" dominant-baseline="middle" font-family="Helvetica" font-size="6" font-weight="regular" fill="black">write_resetn</text>
        <line x1="27" y1="45" x2="5" y2="45" stroke="black" stroke-width="1"/>
        <path d="M 33 45 l -6 +2.0 v -4 z" fill="black"/>
      <text x="117" y="45" text-anchor="end" dominant-baseline="middle" font-family="Helvetica" font-size="6" font-weight="regular" fill="black">read_resetn</text>
        <line x1="125" y1="45" x2="147" y2="45" stroke="black" stroke-width="1"/>
        <path d="M 119 45 l +6 +2.0 v -4 z" fill="black"/>
      <text x="35" y="55" text-anchor="start" dominant-baseline="middle" font-family="Helvetica" font-size="6" font-weight="regular" fill="black">write_enable</text>
        <line x1="27" y1="55" x2="5" y2="55" stroke="black" stroke-width="1"/>
        <path d="M 33 55 l -6 +2.0 v -4 z" fill="black"/>
      <text x="117" y="55" text-anchor="end" dominant-baseline="middle" font-family="Helvetica" font-size="6" font-weight="regular" fill="black">read_enable</text>
        <line x1="125" y1="55" x2="147" y2="55" stroke="black" stroke-width="1"/>
        <path d="M 119 55 l +6 +2.0 v -4 z" fill="black"/>
      <text x="35" y="65" text-anchor="start" dominant-baseline="middle" font-family="Helvetica" font-size="6" font-weight="regular" fill="black">write_data</text>
        <line x1="27" y1="65" x2="5" y2="65" stroke="black" stroke-width="1"/>
        <path d="M 33 65 l -6 +2.0 v -4 z" fill="black"/>
          <line x1="8" y1="63" x2="12" y2="67" stroke="black" stroke-width="1"/>
          <text x="19" y="62" text-anchor="middle" dominant-baseline="middle" font-family="Helvetica" font-size="4" font-weight="regular" fill="black">WIDTH</text>
      <text x="117" y="65" text-anchor="end" dominant-baseline="middle" font-family="Helvetica" font-size="6" font-weight="regular" fill="black">read_data</text>
        <line x1="119" y1="65" x2="141" y2="65" stroke="black" stroke-width="1"/>
        <path d="M 147 65 l -6 +2.0 v -4 z" fill="black"/>
          <line x1="122" y1="63" x2="126" y2="67" stroke="black" stroke-width="1"/>
          <text x="133" y="62" text-anchor="middle" dominant-baseline="middle" font-family="Helvetica" font-size="4" font-weight="regular" fill="black">WIDTH</text>
      <text x="35" y="75" text-anchor="start" dominant-baseline="middle" font-family="Helvetica" font-size="6" font-weight="regular" fill="black">write_full</text>
        <line x1="33" y1="75" x2="11" y2="75" stroke="black" stroke-width="1"/>
        <path d="M 5 75 l +6 +2.0 v -4 z" fill="black"/>
      <text x="117" y="75" text-anchor="end" dominant-baseline="middle" font-family="Helvetica" font-size="6" font-weight="regular" fill="black">read_empty</text>
        <line x1="119" y1="75" x2="141" y2="75" stroke="black" stroke-width="1"/>
        <path d="M 147 75 l -6 +2.0 v -4 z" fill="black"/>
    <style>
      @media (prefers-color-scheme: dark) {
        :root {
          filter: invert(100%) hue-rotate(180deg);
        }
      }
    </style>
</svg>