<svg width="424" height="200" viewBox="0 0 212 100" xmlns="http://www.w3.org/2000/svg">
  <rect x="44" y="5" width="124" height="90" fill="none" stroke="black" stroke-width="1" rx="5"/>
  <text x="106" y="12" text-anchor="middle" dominant-baseline="middle" font-family="Helvetica" font-size="8" font-weight="bold" fill="black">Advanced Wrapping Counter</text>
  <text x="106" y="21" text-anchor="middle" dominant-baseline="middle" font-family="Helvetica" font-size="6" font-weight="regular" fill="black">advanced_wrapping_counter</text>
      <text x="46" y="35" text-anchor="start" dominant-baseline="middle" font-family="Helvetica" font-size="6" font-weight="regular" fill="black">clock</text>
        <line x1="38" y1="35" x2="5" y2="35" stroke="black" stroke-width="1"/>
        <path d="M 44 35 l -6 +2.0 v -4 z" fill="black"/>
      <text x="166" y="35" text-anchor="end" dominant-baseline="middle" font-family="Helvetica" font-size="6" font-weight="regular" fill="black">minimum</text>
        <line x1="168" y1="35" x2="201" y2="35" stroke="black" stroke-width="1"/>
        <path d="M 207 35 l -6 +2.0 v -4 z" fill="black"/>
      <text x="46" y="45" text-anchor="start" dominant-baseline="middle" font-family="Helvetica" font-size="6" font-weight="regular" fill="black">resetn</text>
        <line x1="38" y1="45" x2="5" y2="45" stroke="black" stroke-width="1"/>
        <path d="M 44 45 l -6 +2.0 v -4 z" fill="black"/>
      <text x="166" y="45" text-anchor="end" dominant-baseline="middle" font-family="Helvetica" font-size="6" font-weight="regular" fill="black">maximum</text>
        <line x1="168" y1="45" x2="201" y2="45" stroke="black" stroke-width="1"/>
        <path d="M 207 45 l -6 +2.0 v -4 z" fill="black"/>
      <text x="46" y="55" text-anchor="start" dominant-baseline="middle" font-family="Helvetica" font-size="6" font-weight="regular" fill="black">decrement</text>
        <line x1="38" y1="55" x2="5" y2="55" stroke="black" stroke-width="1"/>
        <path d="M 44 55 l -6 +2.0 v -4 z" fill="black"/>
      <text x="166" y="55" text-anchor="end" dominant-baseline="middle" font-family="Helvetica" font-size="6" font-weight="regular" fill="black">underflow</text>
        <line x1="168" y1="55" x2="201" y2="55" stroke="black" stroke-width="1"/>
        <path d="M 207 55 l -6 +2.0 v -4 z" fill="black"/>
      <text x="46" y="65" text-anchor="start" dominant-baseline="middle" font-family="Helvetica" font-size="6" font-weight="regular" fill="black">increment</text>
        <line x1="38" y1="65" x2="5" y2="65" stroke="black" stroke-width="1"/>
        <path d="M 44 65 l -6 +2.0 v -4 z" fill="black"/>
      <text x="166" y="65" text-anchor="end" dominant-baseline="middle" font-family="Helvetica" font-size="6" font-weight="regular" fill="black">overflow</text>
        <line x1="168" y1="65" x2="201" y2="65" stroke="black" stroke-width="1"/>
        <path d="M 207 65 l -6 +2.0 v -4 z" fill="black"/>
      <text x="46" y="75" text-anchor="start" dominant-baseline="middle" font-family="Helvetica" font-size="6" font-weight="regular" fill="black">load_count</text>
        <line x1="38" y1="75" x2="5" y2="75" stroke="black" stroke-width="1"/>
        <path d="M 44 75 l -6 +2.0 v -4 z" fill="black"/>
          <line x1="8" y1="73" x2="12" y2="77" stroke="black" stroke-width="1"/>
          <text x="24" y="72" text-anchor="middle" dominant-baseline="middle" font-family="Helvetica" font-size="4" font-weight="regular" fill="black">log₂(RANGE)</text>
      <text x="166" y="75" text-anchor="end" dominant-baseline="middle" font-family="Helvetica" font-size="6" font-weight="regular" fill="black">count</text>
        <line x1="168" y1="75" x2="201" y2="75" stroke="black" stroke-width="1"/>
        <path d="M 207 75 l -6 +2.0 v -4 z" fill="black"/>
          <line x1="171" y1="73" x2="175" y2="77" stroke="black" stroke-width="1"/>
          <text x="187" y="72" text-anchor="middle" dominant-baseline="middle" font-family="Helvetica" font-size="4" font-weight="regular" fill="black">log₂(RANGE)</text>
      <text x="46" y="85" text-anchor="start" dominant-baseline="middle" font-family="Helvetica" font-size="6" font-weight="regular" fill="black">load_enable</text>
        <line x1="38" y1="85" x2="5" y2="85" stroke="black" stroke-width="1"/>
        <path d="M 44 85 l -6 +2.0 v -4 z" fill="black"/>
    <style>
      @media (prefers-color-scheme: dark) {
        :root {
          filter: invert(100%) hue-rotate(180deg);
        }
      }
    </style>
</svg>