<svg width="450" height="640" viewBox="0 0 225 320" xmlns="http://www.w3.org/2000/svg">
  <rect x="25" y="5" width="175" height="310" fill="none" stroke="black" stroke-width="1" rx="5"/>
  <text x="112" y="12" text-anchor="middle" dominant-baseline="middle" font-family="Helvetica" font-size="8" font-weight="bold" fill="black">Asynchronous Advanced FIFO Controller</text>
  <text x="112" y="21" text-anchor="middle" dominant-baseline="middle" font-family="Helvetica" font-size="6" font-weight="regular" fill="black">asynchronous_advanced_fifo_controller</text>
      <text x="27" y="35" text-anchor="start" dominant-baseline="middle" font-family="Helvetica" font-size="6" font-weight="regular" fill="black">write_clock</text>
        <line x1="19" y1="35" x2="5" y2="35" stroke="black" stroke-width="1"/>
        <path d="M 25 35 l -6 +2.0 v -4 z" fill="black"/>
      <text x="198" y="35" text-anchor="end" dominant-baseline="middle" font-family="Helvetica" font-size="6" font-weight="regular" fill="black">read_clock</text>
        <line x1="206" y1="35" x2="220" y2="35" stroke="black" stroke-width="1"/>
        <path d="M 200 35 l +6 +2.0 v -4 z" fill="black"/>
      <text x="27" y="45" text-anchor="start" dominant-baseline="middle" font-family="Helvetica" font-size="6" font-weight="regular" fill="black">write_resetn</text>
        <line x1="19" y1="45" x2="5" y2="45" stroke="black" stroke-width="1"/>
        <path d="M 25 45 l -6 +2.0 v -4 z" fill="black"/>
      <text x="198" y="45" text-anchor="end" dominant-baseline="middle" font-family="Helvetica" font-size="6" font-weight="regular" fill="black">read_resetn</text>
        <line x1="206" y1="45" x2="220" y2="45" stroke="black" stroke-width="1"/>
        <path d="M 200 45 l +6 +2.0 v -4 z" fill="black"/>
      <text x="27" y="55" text-anchor="start" dominant-baseline="middle" font-family="Helvetica" font-size="6" font-weight="regular" fill="black">write_flush</text>
        <line x1="19" y1="55" x2="5" y2="55" stroke="black" stroke-width="1"/>
        <path d="M 25 55 l -6 +2.0 v -4 z" fill="black"/>
      <text x="198" y="55" text-anchor="end" dominant-baseline="middle" font-family="Helvetica" font-size="6" font-weight="regular" fill="black">read_flush</text>
        <line x1="206" y1="55" x2="220" y2="55" stroke="black" stroke-width="1"/>
        <path d="M 200 55 l +6 +2.0 v -4 z" fill="black"/>
      <text x="27" y="65" text-anchor="start" dominant-baseline="middle" font-family="Helvetica" font-size="6" font-weight="regular" fill="black">write_enable</text>
        <line x1="19" y1="65" x2="5" y2="65" stroke="black" stroke-width="1"/>
        <path d="M 25 65 l -6 +2.0 v -4 z" fill="black"/>
      <text x="198" y="65" text-anchor="end" dominant-baseline="middle" font-family="Helvetica" font-size="6" font-weight="regular" fill="black">read_enable</text>
        <line x1="206" y1="65" x2="220" y2="65" stroke="black" stroke-width="1"/>
        <path d="M 200 65 l +6 +2.0 v -4 z" fill="black"/>
      <text x="27" y="75" text-anchor="start" dominant-baseline="middle" font-family="Helvetica" font-size="6" font-weight="regular" fill="black">write_data</text>
        <line x1="19" y1="75" x2="5" y2="75" stroke="black" stroke-width="1"/>
        <path d="M 25 75 l -6 +2.0 v -4 z" fill="black"/>
          <line x1="8" y1="73" x2="12" y2="77" stroke="black" stroke-width="1"/>
      <text x="198" y="75" text-anchor="end" dominant-baseline="middle" font-family="Helvetica" font-size="6" font-weight="regular" fill="black">read_data</text>
        <line x1="200" y1="75" x2="214" y2="75" stroke="black" stroke-width="1"/>
        <path d="M 220 75 l -6 +2.0 v -4 z" fill="black"/>
          <line x1="203" y1="73" x2="207" y2="77" stroke="black" stroke-width="1"/>
      <text x="27" y="85" text-anchor="start" dominant-baseline="middle" font-family="Helvetica" font-size="6" font-weight="regular" fill="black">write_miss</text>
        <line x1="25" y1="85" x2="11" y2="85" stroke="black" stroke-width="1"/>
        <path d="M 5 85 l +6 +2.0 v -4 z" fill="black"/>
      <text x="198" y="85" text-anchor="end" dominant-baseline="middle" font-family="Helvetica" font-size="6" font-weight="regular" fill="black">read_error</text>
        <line x1="200" y1="85" x2="214" y2="85" stroke="black" stroke-width="1"/>
        <path d="M 220 85 l -6 +2.0 v -4 z" fill="black"/>
      <text x="27" y="95" text-anchor="start" dominant-baseline="middle" font-family="Helvetica" font-size="6" font-weight="regular" fill="black">write_empty</text>
        <line x1="25" y1="95" x2="11" y2="95" stroke="black" stroke-width="1"/>
        <path d="M 5 95 l +6 +2.0 v -4 z" fill="black"/>
      <text x="198" y="95" text-anchor="end" dominant-baseline="middle" font-family="Helvetica" font-size="6" font-weight="regular" fill="black">read_empty</text>
        <line x1="200" y1="95" x2="214" y2="95" stroke="black" stroke-width="1"/>
        <path d="M 220 95 l -6 +2.0 v -4 z" fill="black"/>
      <text x="27" y="105" text-anchor="start" dominant-baseline="middle" font-family="Helvetica" font-size="6" font-weight="regular" fill="black">write_almost_empty</text>
        <line x1="25" y1="105" x2="11" y2="105" stroke="black" stroke-width="1"/>
        <path d="M 5 105 l +6 +2.0 v -4 z" fill="black"/>
      <text x="198" y="105" text-anchor="end" dominant-baseline="middle" font-family="Helvetica" font-size="6" font-weight="regular" fill="black">read_almost_empty</text>
        <line x1="200" y1="105" x2="214" y2="105" stroke="black" stroke-width="1"/>
        <path d="M 220 105 l -6 +2.0 v -4 z" fill="black"/>
      <text x="27" y="115" text-anchor="start" dominant-baseline="middle" font-family="Helvetica" font-size="6" font-weight="regular" fill="black">write_half_empty</text>
        <line x1="25" y1="115" x2="11" y2="115" stroke="black" stroke-width="1"/>
        <path d="M 5 115 l +6 +2.0 v -4 z" fill="black"/>
      <text x="198" y="115" text-anchor="end" dominant-baseline="middle" font-family="Helvetica" font-size="6" font-weight="regular" fill="black">read_half_empty</text>
        <line x1="200" y1="115" x2="214" y2="115" stroke="black" stroke-width="1"/>
        <path d="M 220 115 l -6 +2.0 v -4 z" fill="black"/>
      <text x="27" y="125" text-anchor="start" dominant-baseline="middle" font-family="Helvetica" font-size="6" font-weight="regular" fill="black">write_not_empty</text>
        <line x1="25" y1="125" x2="11" y2="125" stroke="black" stroke-width="1"/>
        <path d="M 5 125 l +6 +2.0 v -4 z" fill="black"/>
      <text x="198" y="125" text-anchor="end" dominant-baseline="middle" font-family="Helvetica" font-size="6" font-weight="regular" fill="black">read_not_empty</text>
        <line x1="200" y1="125" x2="214" y2="125" stroke="black" stroke-width="1"/>
        <path d="M 220 125 l -6 +2.0 v -4 z" fill="black"/>
      <text x="27" y="135" text-anchor="start" dominant-baseline="middle" font-family="Helvetica" font-size="6" font-weight="regular" fill="black">write_not_full</text>
        <line x1="25" y1="135" x2="11" y2="135" stroke="black" stroke-width="1"/>
        <path d="M 5 135 l +6 +2.0 v -4 z" fill="black"/>
      <text x="198" y="135" text-anchor="end" dominant-baseline="middle" font-family="Helvetica" font-size="6" font-weight="regular" fill="black">read_not_full</text>
        <line x1="200" y1="135" x2="214" y2="135" stroke="black" stroke-width="1"/>
        <path d="M 220 135 l -6 +2.0 v -4 z" fill="black"/>
      <text x="27" y="145" text-anchor="start" dominant-baseline="middle" font-family="Helvetica" font-size="6" font-weight="regular" fill="black">write_half_full</text>
        <line x1="25" y1="145" x2="11" y2="145" stroke="black" stroke-width="1"/>
        <path d="M 5 145 l +6 +2.0 v -4 z" fill="black"/>
      <text x="198" y="145" text-anchor="end" dominant-baseline="middle" font-family="Helvetica" font-size="6" font-weight="regular" fill="black">read_half_full</text>
        <line x1="200" y1="145" x2="214" y2="145" stroke="black" stroke-width="1"/>
        <path d="M 220 145 l -6 +2.0 v -4 z" fill="black"/>
      <text x="27" y="155" text-anchor="start" dominant-baseline="middle" font-family="Helvetica" font-size="6" font-weight="regular" fill="black">write_almost_full</text>
        <line x1="25" y1="155" x2="11" y2="155" stroke="black" stroke-width="1"/>
        <path d="M 5 155 l +6 +2.0 v -4 z" fill="black"/>
      <text x="198" y="155" text-anchor="end" dominant-baseline="middle" font-family="Helvetica" font-size="6" font-weight="regular" fill="black">read_almost_full</text>
        <line x1="200" y1="155" x2="214" y2="155" stroke="black" stroke-width="1"/>
        <path d="M 220 155 l -6 +2.0 v -4 z" fill="black"/>
      <text x="27" y="165" text-anchor="start" dominant-baseline="middle" font-family="Helvetica" font-size="6" font-weight="regular" fill="black">write_full</text>
        <line x1="25" y1="165" x2="11" y2="165" stroke="black" stroke-width="1"/>
        <path d="M 5 165 l +6 +2.0 v -4 z" fill="black"/>
      <text x="198" y="165" text-anchor="end" dominant-baseline="middle" font-family="Helvetica" font-size="6" font-weight="regular" fill="black">read_full</text>
        <line x1="200" y1="165" x2="214" y2="165" stroke="black" stroke-width="1"/>
        <path d="M 220 165 l -6 +2.0 v -4 z" fill="black"/>
      <text x="27" y="175" text-anchor="start" dominant-baseline="middle" font-family="Helvetica" font-size="6" font-weight="regular" fill="black">write_level</text>
        <line x1="25" y1="175" x2="11" y2="175" stroke="black" stroke-width="1"/>
        <path d="M 5 175 l +6 +2.0 v -4 z" fill="black"/>
          <line x1="18" y1="173" x2="22" y2="177" stroke="black" stroke-width="1"/>
      <text x="198" y="175" text-anchor="end" dominant-baseline="middle" font-family="Helvetica" font-size="6" font-weight="regular" fill="black">read_level</text>
        <line x1="200" y1="175" x2="214" y2="175" stroke="black" stroke-width="1"/>
        <path d="M 220 175 l -6 +2.0 v -4 z" fill="black"/>
          <line x1="203" y1="173" x2="207" y2="177" stroke="black" stroke-width="1"/>
      <text x="27" y="185" text-anchor="start" dominant-baseline="middle" font-family="Helvetica" font-size="6" font-weight="regular" fill="black">write_space</text>
        <line x1="25" y1="185" x2="11" y2="185" stroke="black" stroke-width="1"/>
        <path d="M 5 185 l +6 +2.0 v -4 z" fill="black"/>
          <line x1="18" y1="183" x2="22" y2="187" stroke="black" stroke-width="1"/>
      <text x="198" y="185" text-anchor="end" dominant-baseline="middle" font-family="Helvetica" font-size="6" font-weight="regular" fill="black">read_space</text>
        <line x1="200" y1="185" x2="214" y2="185" stroke="black" stroke-width="1"/>
        <path d="M 220 185 l -6 +2.0 v -4 z" fill="black"/>
          <line x1="203" y1="183" x2="207" y2="187" stroke="black" stroke-width="1"/>
      <text x="27" y="195" text-anchor="start" dominant-baseline="middle" font-family="Helvetica" font-size="6" font-weight="regular" fill="black">write_lower_threshold_level</text>
        <line x1="19" y1="195" x2="5" y2="195" stroke="black" stroke-width="1"/>
        <path d="M 25 195 l -6 +2.0 v -4 z" fill="black"/>
          <line x1="8" y1="193" x2="12" y2="197" stroke="black" stroke-width="1"/>
      <text x="198" y="195" text-anchor="end" dominant-baseline="middle" font-family="Helvetica" font-size="6" font-weight="regular" fill="black">read_lower_threshold_level</text>
        <line x1="206" y1="195" x2="220" y2="195" stroke="black" stroke-width="1"/>
        <path d="M 200 195 l +6 +2.0 v -4 z" fill="black"/>
          <line x1="213" y1="193" x2="217" y2="197" stroke="black" stroke-width="1"/>
      <text x="27" y="205" text-anchor="start" dominant-baseline="middle" font-family="Helvetica" font-size="6" font-weight="regular" fill="black">write_lower_threshold_status</text>
        <line x1="25" y1="205" x2="11" y2="205" stroke="black" stroke-width="1"/>
        <path d="M 5 205 l +6 +2.0 v -4 z" fill="black"/>
      <text x="198" y="205" text-anchor="end" dominant-baseline="middle" font-family="Helvetica" font-size="6" font-weight="regular" fill="black">read_lower_threshold_status</text>
        <line x1="200" y1="205" x2="214" y2="205" stroke="black" stroke-width="1"/>
        <path d="M 220 205 l -6 +2.0 v -4 z" fill="black"/>
      <text x="27" y="215" text-anchor="start" dominant-baseline="middle" font-family="Helvetica" font-size="6" font-weight="regular" fill="black">write_upper_threshold_level</text>
        <line x1="19" y1="215" x2="5" y2="215" stroke="black" stroke-width="1"/>
        <path d="M 25 215 l -6 +2.0 v -4 z" fill="black"/>
          <line x1="8" y1="213" x2="12" y2="217" stroke="black" stroke-width="1"/>
      <text x="198" y="215" text-anchor="end" dominant-baseline="middle" font-family="Helvetica" font-size="6" font-weight="regular" fill="black">read_upper_threshold_level</text>
        <line x1="206" y1="215" x2="220" y2="215" stroke="black" stroke-width="1"/>
        <path d="M 200 215 l +6 +2.0 v -4 z" fill="black"/>
          <line x1="213" y1="213" x2="217" y2="217" stroke="black" stroke-width="1"/>
      <text x="27" y="225" text-anchor="start" dominant-baseline="middle" font-family="Helvetica" font-size="6" font-weight="regular" fill="black">write_upper_threshold_status</text>
        <line x1="25" y1="225" x2="11" y2="225" stroke="black" stroke-width="1"/>
        <path d="M 5 225 l +6 +2.0 v -4 z" fill="black"/>
      <text x="198" y="225" text-anchor="end" dominant-baseline="middle" font-family="Helvetica" font-size="6" font-weight="regular" fill="black">read_upper_threshold_status</text>
        <line x1="200" y1="225" x2="214" y2="225" stroke="black" stroke-width="1"/>
        <path d="M 220 225 l -6 +2.0 v -4 z" fill="black"/>
      <text x="198" y="235" text-anchor="end" dominant-baseline="middle" font-family="Helvetica" font-size="6" font-weight="regular" fill="black">memory_write_clock</text>
        <line x1="200" y1="235" x2="214" y2="235" stroke="black" stroke-width="1"/>
        <path d="M 220 235 l -6 +2.0 v -4 z" fill="black"/>
      <text x="198" y="245" text-anchor="end" dominant-baseline="middle" font-family="Helvetica" font-size="6" font-weight="regular" fill="black">memory_write_enable</text>
        <line x1="200" y1="245" x2="214" y2="245" stroke="black" stroke-width="1"/>
        <path d="M 220 245 l -6 +2.0 v -4 z" fill="black"/>
      <text x="198" y="255" text-anchor="end" dominant-baseline="middle" font-family="Helvetica" font-size="6" font-weight="regular" fill="black">memory_write_address</text>
        <line x1="200" y1="255" x2="214" y2="255" stroke="black" stroke-width="1"/>
        <path d="M 220 255 l -6 +2.0 v -4 z" fill="black"/>
          <line x1="203" y1="253" x2="207" y2="257" stroke="black" stroke-width="1"/>
      <text x="198" y="265" text-anchor="end" dominant-baseline="middle" font-family="Helvetica" font-size="6" font-weight="regular" fill="black">memory_write_data</text>
        <line x1="200" y1="265" x2="214" y2="265" stroke="black" stroke-width="1"/>
        <path d="M 220 265 l -6 +2.0 v -4 z" fill="black"/>
          <line x1="203" y1="263" x2="207" y2="267" stroke="black" stroke-width="1"/>
      <text x="198" y="275" text-anchor="end" dominant-baseline="middle" font-family="Helvetica" font-size="6" font-weight="regular" fill="black">memory_read_clock</text>
        <line x1="200" y1="275" x2="214" y2="275" stroke="black" stroke-width="1"/>
        <path d="M 220 275 l -6 +2.0 v -4 z" fill="black"/>
      <text x="198" y="285" text-anchor="end" dominant-baseline="middle" font-family="Helvetica" font-size="6" font-weight="regular" fill="black">memory_read_enable</text>
        <line x1="200" y1="285" x2="214" y2="285" stroke="black" stroke-width="1"/>
        <path d="M 220 285 l -6 +2.0 v -4 z" fill="black"/>
      <text x="198" y="295" text-anchor="end" dominant-baseline="middle" font-family="Helvetica" font-size="6" font-weight="regular" fill="black">memory_read_address</text>
        <line x1="200" y1="295" x2="214" y2="295" stroke="black" stroke-width="1"/>
        <path d="M 220 295 l -6 +2.0 v -4 z" fill="black"/>
          <line x1="203" y1="293" x2="207" y2="297" stroke="black" stroke-width="1"/>
      <text x="198" y="305" text-anchor="end" dominant-baseline="middle" font-family="Helvetica" font-size="6" font-weight="regular" fill="black">memory_read_data</text>
        <line x1="206" y1="305" x2="220" y2="305" stroke="black" stroke-width="1"/>
        <path d="M 200 305 l +6 +2.0 v -4 z" fill="black"/>
          <line x1="213" y1="303" x2="217" y2="307" stroke="black" stroke-width="1"/>
    <style>
      @media (prefers-color-scheme: dark) {
        :root {
          filter: invert(100%) hue-rotate(180deg);
        }
      }
    </style>
</svg>