<svg width="314" height="320" viewBox="0 0 157 160" xmlns="http://www.w3.org/2000/svg">
  <rect x="33" y="5" width="81" height="150" fill="none" stroke="black" stroke-width="1" rx="5"/>
  <text x="73" y="12" text-anchor="middle" dominant-baseline="middle" font-family="Helvetica" font-size="8" font-weight="bold" fill="black">LIFO Controller</text>
  <text x="73" y="21" text-anchor="middle" dominant-baseline="middle" font-family="Helvetica" font-size="6" font-weight="regular" fill="black">lifo_controller</text>
      <text x="35" y="35" text-anchor="start" dominant-baseline="middle" font-family="Helvetica" font-size="6" font-weight="regular" fill="black">clock</text>
        <line x1="27" y1="35" x2="5" y2="35" stroke="black" stroke-width="1"/>
        <path d="M 33 35 l -6 +2.0 v -4 z" fill="black"/>
      <text x="35" y="45" text-anchor="start" dominant-baseline="middle" font-family="Helvetica" font-size="6" font-weight="regular" fill="black">resetn</text>
        <line x1="27" y1="45" x2="5" y2="45" stroke="black" stroke-width="1"/>
        <path d="M 33 45 l -6 +2.0 v -4 z" fill="black"/>
      <text x="35" y="55" text-anchor="start" dominant-baseline="middle" font-family="Helvetica" font-size="6" font-weight="regular" fill="black">write_enable</text>
        <line x1="27" y1="55" x2="5" y2="55" stroke="black" stroke-width="1"/>
        <path d="M 33 55 l -6 +2.0 v -4 z" fill="black"/>
      <text x="112" y="55" text-anchor="end" dominant-baseline="middle" font-family="Helvetica" font-size="6" font-weight="regular" fill="black">read_enable</text>
        <line x1="120" y1="55" x2="152" y2="55" stroke="black" stroke-width="1"/>
        <path d="M 114 55 l +6 +2.0 v -4 z" fill="black"/>
      <text x="35" y="65" text-anchor="start" dominant-baseline="middle" font-family="Helvetica" font-size="6" font-weight="regular" fill="black">write_data</text>
        <line x1="27" y1="65" x2="5" y2="65" stroke="black" stroke-width="1"/>
        <path d="M 33 65 l -6 +2.0 v -4 z" fill="black"/>
          <line x1="8" y1="63" x2="12" y2="67" stroke="black" stroke-width="1"/>
          <text x="19" y="62" text-anchor="middle" dominant-baseline="middle" font-family="Helvetica" font-size="4" font-weight="regular" fill="black">WIDTH</text>
      <text x="112" y="65" text-anchor="end" dominant-baseline="middle" font-family="Helvetica" font-size="6" font-weight="regular" fill="black">read_data</text>
        <line x1="114" y1="65" x2="146" y2="65" stroke="black" stroke-width="1"/>
        <path d="M 152 65 l -6 +2.0 v -4 z" fill="black"/>
          <line x1="117" y1="63" x2="121" y2="67" stroke="black" stroke-width="1"/>
          <text x="133" y="62" text-anchor="middle" dominant-baseline="middle" font-family="Helvetica" font-size="4" font-weight="regular" fill="black">WIDTH</text>
      <text x="35" y="75" text-anchor="start" dominant-baseline="middle" font-family="Helvetica" font-size="6" font-weight="regular" fill="black">full</text>
        <line x1="33" y1="75" x2="11" y2="75" stroke="black" stroke-width="1"/>
        <path d="M 5 75 l +6 +2.0 v -4 z" fill="black"/>
      <text x="112" y="75" text-anchor="end" dominant-baseline="middle" font-family="Helvetica" font-size="6" font-weight="regular" fill="black">empty</text>
        <line x1="114" y1="75" x2="146" y2="75" stroke="black" stroke-width="1"/>
        <path d="M 152 75 l -6 +2.0 v -4 z" fill="black"/>
      <text x="112" y="85" text-anchor="end" dominant-baseline="middle" font-family="Helvetica" font-size="6" font-weight="regular" fill="black">memory_clock</text>
        <line x1="114" y1="85" x2="146" y2="85" stroke="black" stroke-width="1"/>
        <path d="M 152 85 l -6 +2.0 v -4 z" fill="black"/>
      <text x="112" y="95" text-anchor="end" dominant-baseline="middle" font-family="Helvetica" font-size="6" font-weight="regular" fill="black">memory_write_enable</text>
        <line x1="114" y1="95" x2="146" y2="95" stroke="black" stroke-width="1"/>
        <path d="M 152 95 l -6 +2.0 v -4 z" fill="black"/>
      <text x="112" y="105" text-anchor="end" dominant-baseline="middle" font-family="Helvetica" font-size="6" font-weight="regular" fill="black">memory_write_address</text>
        <line x1="114" y1="105" x2="146" y2="105" stroke="black" stroke-width="1"/>
        <path d="M 152 105 l -6 +2.0 v -4 z" fill="black"/>
          <line x1="117" y1="103" x2="121" y2="107" stroke="black" stroke-width="1"/>
          <text x="133" y="102" text-anchor="middle" dominant-baseline="middle" font-family="Helvetica" font-size="4" font-weight="regular" fill="black">log₂(DEPTH)</text>
      <text x="112" y="115" text-anchor="end" dominant-baseline="middle" font-family="Helvetica" font-size="6" font-weight="regular" fill="black">memory_write_data</text>
        <line x1="114" y1="115" x2="146" y2="115" stroke="black" stroke-width="1"/>
        <path d="M 152 115 l -6 +2.0 v -4 z" fill="black"/>
          <line x1="117" y1="113" x2="121" y2="117" stroke="black" stroke-width="1"/>
          <text x="133" y="112" text-anchor="middle" dominant-baseline="middle" font-family="Helvetica" font-size="4" font-weight="regular" fill="black">WIDTH</text>
      <text x="112" y="125" text-anchor="end" dominant-baseline="middle" font-family="Helvetica" font-size="6" font-weight="regular" fill="black">memory_read_enable</text>
        <line x1="114" y1="125" x2="146" y2="125" stroke="black" stroke-width="1"/>
        <path d="M 152 125 l -6 +2.0 v -4 z" fill="black"/>
      <text x="112" y="135" text-anchor="end" dominant-baseline="middle" font-family="Helvetica" font-size="6" font-weight="regular" fill="black">memory_read_address</text>
        <line x1="114" y1="135" x2="146" y2="135" stroke="black" stroke-width="1"/>
        <path d="M 152 135 l -6 +2.0 v -4 z" fill="black"/>
          <line x1="117" y1="133" x2="121" y2="137" stroke="black" stroke-width="1"/>
          <text x="133" y="132" text-anchor="middle" dominant-baseline="middle" font-family="Helvetica" font-size="4" font-weight="regular" fill="black">log₂(DEPTH)</text>
      <text x="112" y="145" text-anchor="end" dominant-baseline="middle" font-family="Helvetica" font-size="6" font-weight="regular" fill="black">memory_read_data</text>
        <line x1="120" y1="145" x2="152" y2="145" stroke="black" stroke-width="1"/>
        <path d="M 114 145 l +6 +2.0 v -4 z" fill="black"/>
          <line x1="145" y1="143" x2="149" y2="147" stroke="black" stroke-width="1"/>
          <text x="133" y="142" text-anchor="middle" dominant-baseline="middle" font-family="Helvetica" font-size="4" font-weight="regular" fill="black">WIDTH</text>
    <style>
      @media (prefers-color-scheme: dark) {
        :root {
          filter: invert(100%) hue-rotate(180deg);
        }
      }
    </style>
</svg>