<svg width="464" height="120" viewBox="0 0 232 60" xmlns="http://www.w3.org/2000/svg">
  <rect x="86" y="5" width="90" height="50" fill="none" stroke="black" stroke-width="1" rx="5"/>
  <text x="131" y="12" text-anchor="middle" dominant-baseline="middle" font-family="Helvetica" font-size="8" font-weight="bold" fill="black">Array One-Hot Select</text>
  <text x="131" y="21" text-anchor="middle" dominant-baseline="middle" font-family="Helvetica" font-size="6" font-weight="regular" fill="black">array_onehot_select</text>
      <text x="88" y="35" text-anchor="start" dominant-baseline="middle" font-family="Helvetica" font-size="6" font-weight="regular" fill="black">array</text>
        <line x1="80" y1="35" x2="5" y2="35" stroke="black" stroke-width="1"/>
        <path d="M 86 35 l -6 +2.0 v -4 z" fill="black"/>
          <line x1="8" y1="33" x2="12" y2="37" stroke="black" stroke-width="1"/>
          <text x="45" y="32" text-anchor="middle" dominant-baseline="middle" font-family="Helvetica" font-size="4" font-weight="regular" fill="black">ARRAY_SIZE×ELEMENT_WIDTH</text>
      <text x="174" y="35" text-anchor="end" dominant-baseline="middle" font-family="Helvetica" font-size="6" font-weight="regular" fill="black">element</text>
        <line x1="176" y1="35" x2="221" y2="35" stroke="black" stroke-width="1"/>
        <path d="M 227 35 l -6 +2.0 v -4 z" fill="black"/>
          <line x1="179" y1="33" x2="183" y2="37" stroke="black" stroke-width="1"/>
          <text x="201" y="32" text-anchor="middle" dominant-baseline="middle" font-family="Helvetica" font-size="4" font-weight="regular" fill="black">ELEMENT_WIDTH</text>
      <text x="88" y="45" text-anchor="start" dominant-baseline="middle" font-family="Helvetica" font-size="6" font-weight="regular" fill="black">onehot_select</text>
        <line x1="86" y1="45" x2="11" y2="45" stroke="black" stroke-width="1"/>
        <path d="M 5 45 l +6 +2.0 v -4 z" fill="black"/>
          <line x1="79" y1="43" x2="83" y2="47" stroke="black" stroke-width="1"/>
          <text x="45" y="42" text-anchor="middle" dominant-baseline="middle" font-family="Helvetica" font-size="4" font-weight="regular" fill="black">ARRAY_SIZE</text>
    <style>
      @media (prefers-color-scheme: dark) {
        :root {
          filter: invert(100%) hue-rotate(180deg);
        }
      }
    </style>
</svg>