<svg width="390" height="140" viewBox="0 0 195 70" xmlns="http://www.w3.org/2000/svg">
  <rect x="25" y="5" width="145" height="60" fill="none" stroke="black" stroke-width="1" rx="5"/>
  <text x="97" y="12" text-anchor="middle" dominant-baseline="middle" font-family="Helvetica" font-size="8" font-weight="bold" fill="black">Gray Wrapping Increment Counter</text>
  <text x="97" y="21" text-anchor="middle" dominant-baseline="middle" font-family="Helvetica" font-size="6" font-weight="regular" fill="black">gray_wrapping_increment_counter</text>
      <text x="27" y="35" text-anchor="start" dominant-baseline="middle" font-family="Helvetica" font-size="6" font-weight="regular" fill="black">clock</text>
        <line x1="19" y1="35" x2="5" y2="35" stroke="black" stroke-width="1"/>
        <path d="M 25 35 l -6 +2.0 v -4 z" fill="black"/>
      <text x="27" y="45" text-anchor="start" dominant-baseline="middle" font-family="Helvetica" font-size="6" font-weight="regular" fill="black">resetn</text>
        <line x1="19" y1="45" x2="5" y2="45" stroke="black" stroke-width="1"/>
        <path d="M 25 45 l -6 +2.0 v -4 z" fill="black"/>
      <text x="168" y="45" text-anchor="end" dominant-baseline="middle" font-family="Helvetica" font-size="6" font-weight="regular" fill="black">count_gray</text>
        <line x1="170" y1="45" x2="184" y2="45" stroke="black" stroke-width="1"/>
        <path d="M 190 45 l -6 +2.0 v -4 z" fill="black"/>
          <line x1="173" y1="43" x2="177" y2="47" stroke="black" stroke-width="1"/>
      <text x="27" y="55" text-anchor="start" dominant-baseline="middle" font-family="Helvetica" font-size="6" font-weight="regular" fill="black">increment</text>
        <line x1="19" y1="55" x2="5" y2="55" stroke="black" stroke-width="1"/>
        <path d="M 25 55 l -6 +2.0 v -4 z" fill="black"/>
      <text x="168" y="55" text-anchor="end" dominant-baseline="middle" font-family="Helvetica" font-size="6" font-weight="regular" fill="black">count_binary</text>
        <line x1="170" y1="55" x2="184" y2="55" stroke="black" stroke-width="1"/>
        <path d="M 190 55 l -6 +2.0 v -4 z" fill="black"/>
          <line x1="173" y1="53" x2="177" y2="57" stroke="black" stroke-width="1"/>
    <style>
      @media (prefers-color-scheme: dark) {
        :root {
          filter: invert(100%) hue-rotate(180deg);
        }
      }
    </style>
</svg>