<svg width="346" height="140" viewBox="0 0 173 70" xmlns="http://www.w3.org/2000/svg">
  <rect x="33" y="5" width="107" height="60" fill="none" stroke="black" stroke-width="1" rx="5"/>
  <text x="86" y="12" text-anchor="middle" dominant-baseline="middle" font-family="Helvetica" font-size="8" font-weight="bold" fill="black">Gray Vector Synchronizer</text>
  <text x="86" y="21" text-anchor="middle" dominant-baseline="middle" font-family="Helvetica" font-size="6" font-weight="regular" fill="black">gray_vector_synchronizer</text>
      <text x="35" y="35" text-anchor="start" dominant-baseline="middle" font-family="Helvetica" font-size="6" font-weight="regular" fill="black">source_clock</text>
        <line x1="27" y1="35" x2="5" y2="35" stroke="black" stroke-width="1"/>
        <path d="M 33 35 l -6 +2.0 v -4 z" fill="black"/>
      <text x="138" y="35" text-anchor="end" dominant-baseline="middle" font-family="Helvetica" font-size="6" font-weight="regular" fill="black">destination_clock</text>
        <line x1="146" y1="35" x2="168" y2="35" stroke="black" stroke-width="1"/>
        <path d="M 140 35 l +6 +2.0 v -4 z" fill="black"/>
      <text x="35" y="45" text-anchor="start" dominant-baseline="middle" font-family="Helvetica" font-size="6" font-weight="regular" fill="black">source_resetn</text>
        <line x1="27" y1="45" x2="5" y2="45" stroke="black" stroke-width="1"/>
        <path d="M 33 45 l -6 +2.0 v -4 z" fill="black"/>
      <text x="138" y="45" text-anchor="end" dominant-baseline="middle" font-family="Helvetica" font-size="6" font-weight="regular" fill="black">destination_resetn</text>
        <line x1="146" y1="45" x2="168" y2="45" stroke="black" stroke-width="1"/>
        <path d="M 140 45 l +6 +2.0 v -4 z" fill="black"/>
      <text x="35" y="55" text-anchor="start" dominant-baseline="middle" font-family="Helvetica" font-size="6" font-weight="regular" fill="black">data_in</text>
        <line x1="27" y1="55" x2="5" y2="55" stroke="black" stroke-width="1"/>
        <path d="M 33 55 l -6 +2.0 v -4 z" fill="black"/>
          <line x1="8" y1="53" x2="12" y2="57" stroke="black" stroke-width="1"/>
          <text x="19" y="52" text-anchor="middle" dominant-baseline="middle" font-family="Helvetica" font-size="4" font-weight="regular" fill="black">WIDTH</text>
      <text x="138" y="55" text-anchor="end" dominant-baseline="middle" font-family="Helvetica" font-size="6" font-weight="regular" fill="black">data_out</text>
        <line x1="140" y1="55" x2="162" y2="55" stroke="black" stroke-width="1"/>
        <path d="M 168 55 l -6 +2.0 v -4 z" fill="black"/>
          <line x1="143" y1="53" x2="147" y2="57" stroke="black" stroke-width="1"/>
          <text x="154" y="52" text-anchor="middle" dominant-baseline="middle" font-family="Helvetica" font-size="4" font-weight="regular" fill="black">WIDTH</text>
    <style>
      @media (prefers-color-scheme: dark) {
        :root {
          filter: invert(100%) hue-rotate(180deg);
        }
      }
    </style>
</svg>