<svg width="400" height="140" viewBox="0 0 200 70" xmlns="http://www.w3.org/2000/svg">
  <rect x="55" y="5" width="120" height="60" fill="none" stroke="black" stroke-width="1" rx="5"/>
  <text x="115" y="12" text-anchor="middle" dominant-baseline="middle" font-family="Helvetica" font-size="8" font-weight="bold" fill="black">Programmable Clock Divider</text>
  <text x="115" y="21" text-anchor="middle" dominant-baseline="middle" font-family="Helvetica" font-size="6" font-weight="regular" fill="black">programmable_clock_divider</text>
      <text x="57" y="35" text-anchor="start" dominant-baseline="middle" font-family="Helvetica" font-size="6" font-weight="regular" fill="black">clock_in</text>
        <line x1="49" y1="35" x2="5" y2="35" stroke="black" stroke-width="1"/>
        <path d="M 55 35 l -6 +2.0 v -4 z" fill="black"/>
      <text x="173" y="35" text-anchor="end" dominant-baseline="middle" font-family="Helvetica" font-size="6" font-weight="regular" fill="black">clock_out</text>
        <line x1="175" y1="35" x2="189" y2="35" stroke="black" stroke-width="1"/>
        <path d="M 195 35 l -6 +2.0 v -4 z" fill="black"/>
      <text x="57" y="45" text-anchor="start" dominant-baseline="middle" font-family="Helvetica" font-size="6" font-weight="regular" fill="black">division</text>
        <line x1="49" y1="45" x2="5" y2="45" stroke="black" stroke-width="1"/>
        <path d="M 55 45 l -6 +2.0 v -4 z" fill="black"/>
          <line x1="8" y1="43" x2="12" y2="47" stroke="black" stroke-width="1"/>
          <text x="30" y="42" text-anchor="middle" dominant-baseline="middle" font-family="Helvetica" font-size="4" font-weight="regular" fill="black">DIVISION_WIDTH</text>
      <text x="57" y="55" text-anchor="start" dominant-baseline="middle" font-family="Helvetica" font-size="6" font-weight="regular" fill="black">resetn</text>
        <line x1="49" y1="55" x2="5" y2="55" stroke="black" stroke-width="1"/>
        <path d="M 55 55 l -6 +2.0 v -4 z" fill="black"/>
    <style>
      @media (prefers-color-scheme: dark) {
        :root {
          filter: invert(100%) hue-rotate(180deg);
        }
      }
    </style>
</svg>