<svg width="542" height="480" viewBox="0 0 271 240" xmlns="http://www.w3.org/2000/svg">
  <rect x="48" y="5" width="175" height="230" fill="none" stroke="black" stroke-width="1" rx="5"/>
  <text x="135" y="12" text-anchor="middle" dominant-baseline="middle" font-family="Helvetica" font-size="8" font-weight="bold" fill="black">Asynchronous Advanced FIFO</text>
  <text x="135" y="21" text-anchor="middle" dominant-baseline="middle" font-family="Helvetica" font-size="6" font-weight="regular" fill="black">asynchronous_advanced_fifo</text>
      <text x="50" y="35" text-anchor="start" dominant-baseline="middle" font-family="Helvetica" font-size="6" font-weight="regular" fill="black">write_clock</text>
        <line x1="42" y1="35" x2="5" y2="35" stroke="black" stroke-width="1"/>
        <path d="M 48 35 l -6 +2.0 v -4 z" fill="black"/>
      <text x="221" y="35" text-anchor="end" dominant-baseline="middle" font-family="Helvetica" font-size="6" font-weight="regular" fill="black">read_clock</text>
        <line x1="229" y1="35" x2="266" y2="35" stroke="black" stroke-width="1"/>
        <path d="M 223 35 l +6 +2.0 v -4 z" fill="black"/>
      <text x="50" y="45" text-anchor="start" dominant-baseline="middle" font-family="Helvetica" font-size="6" font-weight="regular" fill="black">write_resetn</text>
        <line x1="42" y1="45" x2="5" y2="45" stroke="black" stroke-width="1"/>
        <path d="M 48 45 l -6 +2.0 v -4 z" fill="black"/>
      <text x="221" y="45" text-anchor="end" dominant-baseline="middle" font-family="Helvetica" font-size="6" font-weight="regular" fill="black">read_resetn</text>
        <line x1="229" y1="45" x2="266" y2="45" stroke="black" stroke-width="1"/>
        <path d="M 223 45 l +6 +2.0 v -4 z" fill="black"/>
      <text x="50" y="55" text-anchor="start" dominant-baseline="middle" font-family="Helvetica" font-size="6" font-weight="regular" fill="black">write_flush</text>
        <line x1="42" y1="55" x2="5" y2="55" stroke="black" stroke-width="1"/>
        <path d="M 48 55 l -6 +2.0 v -4 z" fill="black"/>
      <text x="221" y="55" text-anchor="end" dominant-baseline="middle" font-family="Helvetica" font-size="6" font-weight="regular" fill="black">read_flush</text>
        <line x1="229" y1="55" x2="266" y2="55" stroke="black" stroke-width="1"/>
        <path d="M 223 55 l +6 +2.0 v -4 z" fill="black"/>
      <text x="50" y="65" text-anchor="start" dominant-baseline="middle" font-family="Helvetica" font-size="6" font-weight="regular" fill="black">write_enable</text>
        <line x1="42" y1="65" x2="5" y2="65" stroke="black" stroke-width="1"/>
        <path d="M 48 65 l -6 +2.0 v -4 z" fill="black"/>
      <text x="221" y="65" text-anchor="end" dominant-baseline="middle" font-family="Helvetica" font-size="6" font-weight="regular" fill="black">read_enable</text>
        <line x1="229" y1="65" x2="266" y2="65" stroke="black" stroke-width="1"/>
        <path d="M 223 65 l +6 +2.0 v -4 z" fill="black"/>
      <text x="50" y="75" text-anchor="start" dominant-baseline="middle" font-family="Helvetica" font-size="6" font-weight="regular" fill="black">write_data</text>
        <line x1="42" y1="75" x2="5" y2="75" stroke="black" stroke-width="1"/>
        <path d="M 48 75 l -6 +2.0 v -4 z" fill="black"/>
          <line x1="8" y1="73" x2="12" y2="77" stroke="black" stroke-width="1"/>
          <text x="26" y="72" text-anchor="middle" dominant-baseline="middle" font-family="Helvetica" font-size="4" font-weight="regular" fill="black">WIDTH</text>
      <text x="221" y="75" text-anchor="end" dominant-baseline="middle" font-family="Helvetica" font-size="6" font-weight="regular" fill="black">read_data</text>
        <line x1="223" y1="75" x2="260" y2="75" stroke="black" stroke-width="1"/>
        <path d="M 266 75 l -6 +2.0 v -4 z" fill="black"/>
          <line x1="226" y1="73" x2="230" y2="77" stroke="black" stroke-width="1"/>
          <text x="244" y="72" text-anchor="middle" dominant-baseline="middle" font-family="Helvetica" font-size="4" font-weight="regular" fill="black">WIDTH</text>
      <text x="50" y="85" text-anchor="start" dominant-baseline="middle" font-family="Helvetica" font-size="6" font-weight="regular" fill="black">write_miss</text>
        <line x1="48" y1="85" x2="11" y2="85" stroke="black" stroke-width="1"/>
        <path d="M 5 85 l +6 +2.0 v -4 z" fill="black"/>
      <text x="221" y="85" text-anchor="end" dominant-baseline="middle" font-family="Helvetica" font-size="6" font-weight="regular" fill="black">read_error</text>
        <line x1="223" y1="85" x2="260" y2="85" stroke="black" stroke-width="1"/>
        <path d="M 266 85 l -6 +2.0 v -4 z" fill="black"/>
      <text x="50" y="95" text-anchor="start" dominant-baseline="middle" font-family="Helvetica" font-size="6" font-weight="regular" fill="black">write_empty</text>
        <line x1="48" y1="95" x2="11" y2="95" stroke="black" stroke-width="1"/>
        <path d="M 5 95 l +6 +2.0 v -4 z" fill="black"/>
      <text x="221" y="95" text-anchor="end" dominant-baseline="middle" font-family="Helvetica" font-size="6" font-weight="regular" fill="black">read_empty</text>
        <line x1="223" y1="95" x2="260" y2="95" stroke="black" stroke-width="1"/>
        <path d="M 266 95 l -6 +2.0 v -4 z" fill="black"/>
      <text x="50" y="105" text-anchor="start" dominant-baseline="middle" font-family="Helvetica" font-size="6" font-weight="regular" fill="black">write_almost_empty</text>
        <line x1="48" y1="105" x2="11" y2="105" stroke="black" stroke-width="1"/>
        <path d="M 5 105 l +6 +2.0 v -4 z" fill="black"/>
      <text x="221" y="105" text-anchor="end" dominant-baseline="middle" font-family="Helvetica" font-size="6" font-weight="regular" fill="black">read_almost_empty</text>
        <line x1="223" y1="105" x2="260" y2="105" stroke="black" stroke-width="1"/>
        <path d="M 266 105 l -6 +2.0 v -4 z" fill="black"/>
      <text x="50" y="115" text-anchor="start" dominant-baseline="middle" font-family="Helvetica" font-size="6" font-weight="regular" fill="black">write_half_empty</text>
        <line x1="48" y1="115" x2="11" y2="115" stroke="black" stroke-width="1"/>
        <path d="M 5 115 l +6 +2.0 v -4 z" fill="black"/>
      <text x="221" y="115" text-anchor="end" dominant-baseline="middle" font-family="Helvetica" font-size="6" font-weight="regular" fill="black">read_half_empty</text>
        <line x1="223" y1="115" x2="260" y2="115" stroke="black" stroke-width="1"/>
        <path d="M 266 115 l -6 +2.0 v -4 z" fill="black"/>
      <text x="50" y="125" text-anchor="start" dominant-baseline="middle" font-family="Helvetica" font-size="6" font-weight="regular" fill="black">write_not_empty</text>
        <line x1="48" y1="125" x2="11" y2="125" stroke="black" stroke-width="1"/>
        <path d="M 5 125 l +6 +2.0 v -4 z" fill="black"/>
      <text x="221" y="125" text-anchor="end" dominant-baseline="middle" font-family="Helvetica" font-size="6" font-weight="regular" fill="black">read_not_empty</text>
        <line x1="223" y1="125" x2="260" y2="125" stroke="black" stroke-width="1"/>
        <path d="M 266 125 l -6 +2.0 v -4 z" fill="black"/>
      <text x="50" y="135" text-anchor="start" dominant-baseline="middle" font-family="Helvetica" font-size="6" font-weight="regular" fill="black">write_not_full</text>
        <line x1="48" y1="135" x2="11" y2="135" stroke="black" stroke-width="1"/>
        <path d="M 5 135 l +6 +2.0 v -4 z" fill="black"/>
      <text x="221" y="135" text-anchor="end" dominant-baseline="middle" font-family="Helvetica" font-size="6" font-weight="regular" fill="black">read_not_full</text>
        <line x1="223" y1="135" x2="260" y2="135" stroke="black" stroke-width="1"/>
        <path d="M 266 135 l -6 +2.0 v -4 z" fill="black"/>
      <text x="50" y="145" text-anchor="start" dominant-baseline="middle" font-family="Helvetica" font-size="6" font-weight="regular" fill="black">write_half_full</text>
        <line x1="48" y1="145" x2="11" y2="145" stroke="black" stroke-width="1"/>
        <path d="M 5 145 l +6 +2.0 v -4 z" fill="black"/>
      <text x="221" y="145" text-anchor="end" dominant-baseline="middle" font-family="Helvetica" font-size="6" font-weight="regular" fill="black">read_half_full</text>
        <line x1="223" y1="145" x2="260" y2="145" stroke="black" stroke-width="1"/>
        <path d="M 266 145 l -6 +2.0 v -4 z" fill="black"/>
      <text x="50" y="155" text-anchor="start" dominant-baseline="middle" font-family="Helvetica" font-size="6" font-weight="regular" fill="black">write_almost_full</text>
        <line x1="48" y1="155" x2="11" y2="155" stroke="black" stroke-width="1"/>
        <path d="M 5 155 l +6 +2.0 v -4 z" fill="black"/>
      <text x="221" y="155" text-anchor="end" dominant-baseline="middle" font-family="Helvetica" font-size="6" font-weight="regular" fill="black">read_almost_full</text>
        <line x1="223" y1="155" x2="260" y2="155" stroke="black" stroke-width="1"/>
        <path d="M 266 155 l -6 +2.0 v -4 z" fill="black"/>
      <text x="50" y="165" text-anchor="start" dominant-baseline="middle" font-family="Helvetica" font-size="6" font-weight="regular" fill="black">write_full</text>
        <line x1="48" y1="165" x2="11" y2="165" stroke="black" stroke-width="1"/>
        <path d="M 5 165 l +6 +2.0 v -4 z" fill="black"/>
      <text x="221" y="165" text-anchor="end" dominant-baseline="middle" font-family="Helvetica" font-size="6" font-weight="regular" fill="black">read_full</text>
        <line x1="223" y1="165" x2="260" y2="165" stroke="black" stroke-width="1"/>
        <path d="M 266 165 l -6 +2.0 v -4 z" fill="black"/>
      <text x="50" y="175" text-anchor="start" dominant-baseline="middle" font-family="Helvetica" font-size="6" font-weight="regular" fill="black">write_level</text>
        <line x1="48" y1="175" x2="11" y2="175" stroke="black" stroke-width="1"/>
        <path d="M 5 175 l +6 +2.0 v -4 z" fill="black"/>
          <line x1="41" y1="173" x2="45" y2="177" stroke="black" stroke-width="1"/>
          <text x="26" y="172" text-anchor="middle" dominant-baseline="middle" font-family="Helvetica" font-size="4" font-weight="regular" fill="black">log₂(DEPTH)+1</text>
      <text x="221" y="175" text-anchor="end" dominant-baseline="middle" font-family="Helvetica" font-size="6" font-weight="regular" fill="black">read_level</text>
        <line x1="223" y1="175" x2="260" y2="175" stroke="black" stroke-width="1"/>
        <path d="M 266 175 l -6 +2.0 v -4 z" fill="black"/>
          <line x1="226" y1="173" x2="230" y2="177" stroke="black" stroke-width="1"/>
          <text x="244" y="172" text-anchor="middle" dominant-baseline="middle" font-family="Helvetica" font-size="4" font-weight="regular" fill="black">log₂(DEPTH)+1</text>
      <text x="50" y="185" text-anchor="start" dominant-baseline="middle" font-family="Helvetica" font-size="6" font-weight="regular" fill="black">write_space</text>
        <line x1="48" y1="185" x2="11" y2="185" stroke="black" stroke-width="1"/>
        <path d="M 5 185 l +6 +2.0 v -4 z" fill="black"/>
          <line x1="41" y1="183" x2="45" y2="187" stroke="black" stroke-width="1"/>
          <text x="26" y="182" text-anchor="middle" dominant-baseline="middle" font-family="Helvetica" font-size="4" font-weight="regular" fill="black">log₂(DEPTH)+1</text>
      <text x="221" y="185" text-anchor="end" dominant-baseline="middle" font-family="Helvetica" font-size="6" font-weight="regular" fill="black">read_space</text>
        <line x1="223" y1="185" x2="260" y2="185" stroke="black" stroke-width="1"/>
        <path d="M 266 185 l -6 +2.0 v -4 z" fill="black"/>
          <line x1="226" y1="183" x2="230" y2="187" stroke="black" stroke-width="1"/>
          <text x="244" y="182" text-anchor="middle" dominant-baseline="middle" font-family="Helvetica" font-size="4" font-weight="regular" fill="black">log₂(DEPTH)+1</text>
      <text x="50" y="195" text-anchor="start" dominant-baseline="middle" font-family="Helvetica" font-size="6" font-weight="regular" fill="black">write_lower_threshold_level</text>
        <line x1="42" y1="195" x2="5" y2="195" stroke="black" stroke-width="1"/>
        <path d="M 48 195 l -6 +2.0 v -4 z" fill="black"/>
          <line x1="8" y1="193" x2="12" y2="197" stroke="black" stroke-width="1"/>
          <text x="26" y="192" text-anchor="middle" dominant-baseline="middle" font-family="Helvetica" font-size="4" font-weight="regular" fill="black">log₂(DEPTH)+1</text>
      <text x="221" y="195" text-anchor="end" dominant-baseline="middle" font-family="Helvetica" font-size="6" font-weight="regular" fill="black">read_lower_threshold_level</text>
        <line x1="229" y1="195" x2="266" y2="195" stroke="black" stroke-width="1"/>
        <path d="M 223 195 l +6 +2.0 v -4 z" fill="black"/>
          <line x1="259" y1="193" x2="263" y2="197" stroke="black" stroke-width="1"/>
          <text x="244" y="192" text-anchor="middle" dominant-baseline="middle" font-family="Helvetica" font-size="4" font-weight="regular" fill="black">log₂(DEPTH)+1</text>
      <text x="50" y="205" text-anchor="start" dominant-baseline="middle" font-family="Helvetica" font-size="6" font-weight="regular" fill="black">write_lower_threshold_status</text>
        <line x1="48" y1="205" x2="11" y2="205" stroke="black" stroke-width="1"/>
        <path d="M 5 205 l +6 +2.0 v -4 z" fill="black"/>
      <text x="221" y="205" text-anchor="end" dominant-baseline="middle" font-family="Helvetica" font-size="6" font-weight="regular" fill="black">read_lower_threshold_status</text>
        <line x1="223" y1="205" x2="260" y2="205" stroke="black" stroke-width="1"/>
        <path d="M 266 205 l -6 +2.0 v -4 z" fill="black"/>
      <text x="50" y="215" text-anchor="start" dominant-baseline="middle" font-family="Helvetica" font-size="6" font-weight="regular" fill="black">write_upper_threshold_level</text>
        <line x1="42" y1="215" x2="5" y2="215" stroke="black" stroke-width="1"/>
        <path d="M 48 215 l -6 +2.0 v -4 z" fill="black"/>
          <line x1="8" y1="213" x2="12" y2="217" stroke="black" stroke-width="1"/>
          <text x="26" y="212" text-anchor="middle" dominant-baseline="middle" font-family="Helvetica" font-size="4" font-weight="regular" fill="black">log₂(DEPTH)+1</text>
      <text x="221" y="215" text-anchor="end" dominant-baseline="middle" font-family="Helvetica" font-size="6" font-weight="regular" fill="black">read_upper_threshold_level</text>
        <line x1="229" y1="215" x2="266" y2="215" stroke="black" stroke-width="1"/>
        <path d="M 223 215 l +6 +2.0 v -4 z" fill="black"/>
          <line x1="259" y1="213" x2="263" y2="217" stroke="black" stroke-width="1"/>
          <text x="244" y="212" text-anchor="middle" dominant-baseline="middle" font-family="Helvetica" font-size="4" font-weight="regular" fill="black">log₂(DEPTH)+1</text>
      <text x="50" y="225" text-anchor="start" dominant-baseline="middle" font-family="Helvetica" font-size="6" font-weight="regular" fill="black">write_upper_threshold_status</text>
        <line x1="48" y1="225" x2="11" y2="225" stroke="black" stroke-width="1"/>
        <path d="M 5 225 l +6 +2.0 v -4 z" fill="black"/>
      <text x="221" y="225" text-anchor="end" dominant-baseline="middle" font-family="Helvetica" font-size="6" font-weight="regular" fill="black">read_upper_threshold_status</text>
        <line x1="223" y1="225" x2="260" y2="225" stroke="black" stroke-width="1"/>
        <path d="M 266 225 l -6 +2.0 v -4 z" fill="black"/>
    <style>
      @media (prefers-color-scheme: dark) {
        :root {
          filter: invert(100%) hue-rotate(180deg);
        }
      }
    </style>
</svg>