<svg width="370" height="120" viewBox="0 0 185 60" xmlns="http://www.w3.org/2000/svg">
  <rect x="56" y="5" width="81" height="50" fill="none" stroke="black" stroke-width="1" rx="5"/>
  <text x="96" y="12" text-anchor="middle" dominant-baseline="middle" font-family="Helvetica" font-size="8" font-weight="bold" fill="black">Barrel Left Rotator</text>
  <text x="96" y="21" text-anchor="middle" dominant-baseline="middle" font-family="Helvetica" font-size="6" font-weight="regular" fill="black">barrel_rotator_left</text>
      <text x="58" y="35" text-anchor="start" dominant-baseline="middle" font-family="Helvetica" font-size="6" font-weight="regular" fill="black">rotation</text>
        <line x1="50" y1="35" x2="5" y2="35" stroke="black" stroke-width="1"/>
        <path d="M 56 35 l -6 +2.0 v -4 z" fill="black"/>
          <line x1="8" y1="33" x2="12" y2="37" stroke="black" stroke-width="1"/>
          <text x="30" y="32" text-anchor="middle" dominant-baseline="middle" font-family="Helvetica" font-size="4" font-weight="regular" fill="black">log₂(DATA_WIDTH)</text>
      <text x="58" y="45" text-anchor="start" dominant-baseline="middle" font-family="Helvetica" font-size="6" font-weight="regular" fill="black">data_in</text>
        <line x1="50" y1="45" x2="5" y2="45" stroke="black" stroke-width="1"/>
        <path d="M 56 45 l -6 +2.0 v -4 z" fill="black"/>
          <line x1="8" y1="43" x2="12" y2="47" stroke="black" stroke-width="1"/>
          <text x="30" y="42" text-anchor="middle" dominant-baseline="middle" font-family="Helvetica" font-size="4" font-weight="regular" fill="black">DATA_WIDTH</text>
      <text x="135" y="45" text-anchor="end" dominant-baseline="middle" font-family="Helvetica" font-size="6" font-weight="regular" fill="black">data_out</text>
        <line x1="137" y1="45" x2="174" y2="45" stroke="black" stroke-width="1"/>
        <path d="M 180 45 l -6 +2.0 v -4 z" fill="black"/>
          <line x1="140" y1="43" x2="144" y2="47" stroke="black" stroke-width="1"/>
          <text x="158" y="42" text-anchor="middle" dominant-baseline="middle" font-family="Helvetica" font-size="4" font-weight="regular" fill="black">DATA_WIDTH</text>
    <style>
      @media (prefers-color-scheme: dark) {
        :root {
          filter: invert(100%) hue-rotate(180deg);
        }
      }
    </style>
</svg>