<svg width="348" height="240" viewBox="0 0 174 120" xmlns="http://www.w3.org/2000/svg">
  <rect x="43" y="5" width="88" height="110" fill="none" stroke="black" stroke-width="1" rx="5"/>
  <text x="87" y="12" text-anchor="middle" dominant-baseline="middle" font-family="Helvetica" font-size="8" font-weight="bold" fill="black">Tag Directory</text>
  <text x="87" y="21" text-anchor="middle" dominant-baseline="middle" font-family="Helvetica" font-size="6" font-weight="regular" fill="black">tag_directory</text>
      <text x="45" y="35" text-anchor="start" dominant-baseline="middle" font-family="Helvetica" font-size="6" font-weight="regular" fill="black">clock</text>
        <line x1="37" y1="35" x2="5" y2="35" stroke="black" stroke-width="1"/>
        <path d="M 43 35 l -6 +2.0 v -4 z" fill="black"/>
      <text x="45" y="45" text-anchor="start" dominant-baseline="middle" font-family="Helvetica" font-size="6" font-weight="regular" fill="black">resetn</text>
        <line x1="37" y1="45" x2="5" y2="45" stroke="black" stroke-width="1"/>
        <path d="M 43 45 l -6 +2.0 v -4 z" fill="black"/>
      <text x="45" y="55" text-anchor="start" dominant-baseline="middle" font-family="Helvetica" font-size="6" font-weight="regular" fill="black">full</text>
        <line x1="43" y1="55" x2="11" y2="55" stroke="black" stroke-width="1"/>
        <path d="M 5 55 l +6 +2.0 v -4 z" fill="black"/>
      <text x="129" y="55" text-anchor="end" dominant-baseline="middle" font-family="Helvetica" font-size="6" font-weight="regular" fill="black">empty</text>
        <line x1="131" y1="55" x2="163" y2="55" stroke="black" stroke-width="1"/>
        <path d="M 169 55 l -6 +2.0 v -4 z" fill="black"/>
      <text x="45" y="65" text-anchor="start" dominant-baseline="middle" font-family="Helvetica" font-size="6" font-weight="regular" fill="black">allocate_enable</text>
        <line x1="37" y1="65" x2="5" y2="65" stroke="black" stroke-width="1"/>
        <path d="M 43 65 l -6 +2.0 v -4 z" fill="black"/>
      <text x="129" y="65" text-anchor="end" dominant-baseline="middle" font-family="Helvetica" font-size="6" font-weight="regular" fill="black">search_hit</text>
        <line x1="131" y1="65" x2="163" y2="65" stroke="black" stroke-width="1"/>
        <path d="M 169 65 l -6 +2.0 v -4 z" fill="black"/>
      <text x="45" y="75" text-anchor="start" dominant-baseline="middle" font-family="Helvetica" font-size="6" font-weight="regular" fill="black">allocate_tag</text>
        <line x1="37" y1="75" x2="5" y2="75" stroke="black" stroke-width="1"/>
        <path d="M 43 75 l -6 +2.0 v -4 z" fill="black"/>
          <line x1="8" y1="73" x2="12" y2="77" stroke="black" stroke-width="1"/>
          <text x="24" y="72" text-anchor="middle" dominant-baseline="middle" font-family="Helvetica" font-size="4" font-weight="regular" fill="black">WIDTH</text>
      <text x="129" y="75" text-anchor="end" dominant-baseline="middle" font-family="Helvetica" font-size="6" font-weight="regular" fill="black">search_tag</text>
        <line x1="137" y1="75" x2="169" y2="75" stroke="black" stroke-width="1"/>
        <path d="M 131 75 l +6 +2.0 v -4 z" fill="black"/>
          <line x1="162" y1="73" x2="166" y2="77" stroke="black" stroke-width="1"/>
          <text x="150" y="72" text-anchor="middle" dominant-baseline="middle" font-family="Helvetica" font-size="4" font-weight="regular" fill="black">WIDTH</text>
      <text x="45" y="85" text-anchor="start" dominant-baseline="middle" font-family="Helvetica" font-size="6" font-weight="regular" fill="black">allocate_index</text>
        <line x1="43" y1="85" x2="11" y2="85" stroke="black" stroke-width="1"/>
        <path d="M 5 85 l +6 +2.0 v -4 z" fill="black"/>
          <line x1="36" y1="83" x2="40" y2="87" stroke="black" stroke-width="1"/>
          <text x="24" y="82" text-anchor="middle" dominant-baseline="middle" font-family="Helvetica" font-size="4" font-weight="regular" fill="black">log₂(DEPTH)</text>
      <text x="129" y="85" text-anchor="end" dominant-baseline="middle" font-family="Helvetica" font-size="6" font-weight="regular" fill="black">search_index</text>
        <line x1="131" y1="85" x2="163" y2="85" stroke="black" stroke-width="1"/>
        <path d="M 169 85 l -6 +2.0 v -4 z" fill="black"/>
          <line x1="134" y1="83" x2="138" y2="87" stroke="black" stroke-width="1"/>
          <text x="150" y="82" text-anchor="middle" dominant-baseline="middle" font-family="Helvetica" font-size="4" font-weight="regular" fill="black">log₂(DEPTH)</text>
      <text x="129" y="95" text-anchor="end" dominant-baseline="middle" font-family="Helvetica" font-size="6" font-weight="regular" fill="black">evict_enable</text>
        <line x1="137" y1="95" x2="169" y2="95" stroke="black" stroke-width="1"/>
        <path d="M 131 95 l +6 +2.0 v -4 z" fill="black"/>
      <text x="129" y="105" text-anchor="end" dominant-baseline="middle" font-family="Helvetica" font-size="6" font-weight="regular" fill="black">evict_index</text>
        <line x1="137" y1="105" x2="169" y2="105" stroke="black" stroke-width="1"/>
        <path d="M 131 105 l +6 +2.0 v -4 z" fill="black"/>
          <line x1="162" y1="103" x2="166" y2="107" stroke="black" stroke-width="1"/>
          <text x="150" y="102" text-anchor="middle" dominant-baseline="middle" font-family="Helvetica" font-size="4" font-weight="regular" fill="black">log₂(DEPTH)</text>
    <style>
      @media (prefers-color-scheme: dark) {
        :root {
          filter: invert(100%) hue-rotate(180deg);
        }
      }
    </style>
</svg>