<svg width="330" height="260" viewBox="0 0 165 130" xmlns="http://www.w3.org/2000/svg">
  <rect x="43" y="5" width="89" height="120" fill="none" stroke="black" stroke-width="1" rx="5"/>
  <text x="87" y="12" text-anchor="middle" dominant-baseline="middle" font-family="Helvetica" font-size="8" font-weight="bold" fill="black">Reorder Buffer</text>
  <text x="87" y="21" text-anchor="middle" dominant-baseline="middle" font-family="Helvetica" font-size="6" font-weight="regular" fill="black">reorder_buffer</text>
      <text x="45" y="35" text-anchor="start" dominant-baseline="middle" font-family="Helvetica" font-size="6" font-weight="regular" fill="black">clock</text>
        <line x1="37" y1="35" x2="5" y2="35" stroke="black" stroke-width="1"/>
        <path d="M 43 35 l -6 +2.0 v -4 z" fill="black"/>
      <text x="45" y="45" text-anchor="start" dominant-baseline="middle" font-family="Helvetica" font-size="6" font-weight="regular" fill="black">resetn</text>
        <line x1="37" y1="45" x2="5" y2="45" stroke="black" stroke-width="1"/>
        <path d="M 43 45 l -6 +2.0 v -4 z" fill="black"/>
      <text x="45" y="55" text-anchor="start" dominant-baseline="middle" font-family="Helvetica" font-size="6" font-weight="regular" fill="black">reserve_enable</text>
        <line x1="37" y1="55" x2="5" y2="55" stroke="black" stroke-width="1"/>
        <path d="M 43 55 l -6 +2.0 v -4 z" fill="black"/>
      <text x="45" y="65" text-anchor="start" dominant-baseline="middle" font-family="Helvetica" font-size="6" font-weight="regular" fill="black">reserve_index</text>
        <line x1="43" y1="65" x2="11" y2="65" stroke="black" stroke-width="1"/>
        <path d="M 5 65 l +6 +2.0 v -4 z" fill="black"/>
          <line x1="36" y1="63" x2="40" y2="67" stroke="black" stroke-width="1"/>
          <text x="24" y="62" text-anchor="middle" dominant-baseline="middle" font-family="Helvetica" font-size="4" font-weight="regular" fill="black">log₂(DEPTH)</text>
      <text x="45" y="75" text-anchor="start" dominant-baseline="middle" font-family="Helvetica" font-size="6" font-weight="regular" fill="black">write_enable</text>
        <line x1="37" y1="75" x2="5" y2="75" stroke="black" stroke-width="1"/>
        <path d="M 43 75 l -6 +2.0 v -4 z" fill="black"/>
      <text x="130" y="75" text-anchor="end" dominant-baseline="middle" font-family="Helvetica" font-size="6" font-weight="regular" fill="black">read_enable</text>
        <line x1="138" y1="75" x2="160" y2="75" stroke="black" stroke-width="1"/>
        <path d="M 132 75 l +6 +2.0 v -4 z" fill="black"/>
      <text x="45" y="85" text-anchor="start" dominant-baseline="middle" font-family="Helvetica" font-size="6" font-weight="regular" fill="black">write_index</text>
        <line x1="37" y1="85" x2="5" y2="85" stroke="black" stroke-width="1"/>
        <path d="M 43 85 l -6 +2.0 v -4 z" fill="black"/>
          <line x1="8" y1="83" x2="12" y2="87" stroke="black" stroke-width="1"/>
          <text x="24" y="82" text-anchor="middle" dominant-baseline="middle" font-family="Helvetica" font-size="4" font-weight="regular" fill="black">log₂(DEPTH)</text>
      <text x="45" y="95" text-anchor="start" dominant-baseline="middle" font-family="Helvetica" font-size="6" font-weight="regular" fill="black">write_data</text>
        <line x1="37" y1="95" x2="5" y2="95" stroke="black" stroke-width="1"/>
        <path d="M 43 95 l -6 +2.0 v -4 z" fill="black"/>
          <line x1="8" y1="93" x2="12" y2="97" stroke="black" stroke-width="1"/>
          <text x="24" y="92" text-anchor="middle" dominant-baseline="middle" font-family="Helvetica" font-size="4" font-weight="regular" fill="black">WIDTH</text>
      <text x="130" y="95" text-anchor="end" dominant-baseline="middle" font-family="Helvetica" font-size="6" font-weight="regular" fill="black">read_data</text>
        <line x1="132" y1="95" x2="154" y2="95" stroke="black" stroke-width="1"/>
        <path d="M 160 95 l -6 +2.0 v -4 z" fill="black"/>
          <line x1="135" y1="93" x2="139" y2="97" stroke="black" stroke-width="1"/>
          <text x="146" y="92" text-anchor="middle" dominant-baseline="middle" font-family="Helvetica" font-size="4" font-weight="regular" fill="black">WIDTH</text>
      <text x="45" y="105" text-anchor="start" dominant-baseline="middle" font-family="Helvetica" font-size="6" font-weight="regular" fill="black">reserve_full</text>
        <line x1="43" y1="105" x2="11" y2="105" stroke="black" stroke-width="1"/>
        <path d="M 5 105 l +6 +2.0 v -4 z" fill="black"/>
      <text x="130" y="105" text-anchor="end" dominant-baseline="middle" font-family="Helvetica" font-size="6" font-weight="regular" fill="black">data_full</text>
        <line x1="132" y1="105" x2="154" y2="105" stroke="black" stroke-width="1"/>
        <path d="M 160 105 l -6 +2.0 v -4 z" fill="black"/>
      <text x="45" y="115" text-anchor="start" dominant-baseline="middle" font-family="Helvetica" font-size="6" font-weight="regular" fill="black">reserve_empty</text>
        <line x1="43" y1="115" x2="11" y2="115" stroke="black" stroke-width="1"/>
        <path d="M 5 115 l +6 +2.0 v -4 z" fill="black"/>
      <text x="130" y="115" text-anchor="end" dominant-baseline="middle" font-family="Helvetica" font-size="6" font-weight="regular" fill="black">data_empty</text>
        <line x1="132" y1="115" x2="154" y2="115" stroke="black" stroke-width="1"/>
        <path d="M 160 115 l -6 +2.0 v -4 z" fill="black"/>
    <style>
      @media (prefers-color-scheme: dark) {
        :root {
          filter: invert(100%) hue-rotate(180deg);
        }
      }
    </style>
</svg>