<svg width="304" height="200" viewBox="0 0 152 100" xmlns="http://www.w3.org/2000/svg">
  <rect x="25" y="5" width="102" height="90" fill="none" stroke="black" stroke-width="1" rx="5"/>
  <text x="76" y="12" text-anchor="middle" dominant-baseline="middle" font-family="Helvetica" font-size="8" font-weight="bold" fill="black">Gray Wrapping Counter</text>
  <text x="76" y="21" text-anchor="middle" dominant-baseline="middle" font-family="Helvetica" font-size="6" font-weight="regular" fill="black">gray_wrapping_counter</text>
      <text x="27" y="35" text-anchor="start" dominant-baseline="middle" font-family="Helvetica" font-size="6" font-weight="regular" fill="black">clock</text>
        <line x1="19" y1="35" x2="5" y2="35" stroke="black" stroke-width="1"/>
        <path d="M 25 35 l -6 +2.0 v -4 z" fill="black"/>
      <text x="125" y="35" text-anchor="end" dominant-baseline="middle" font-family="Helvetica" font-size="6" font-weight="regular" fill="black">minimum</text>
        <line x1="127" y1="35" x2="141" y2="35" stroke="black" stroke-width="1"/>
        <path d="M 147 35 l -6 +2.0 v -4 z" fill="black"/>
      <text x="27" y="45" text-anchor="start" dominant-baseline="middle" font-family="Helvetica" font-size="6" font-weight="regular" fill="black">resetn</text>
        <line x1="19" y1="45" x2="5" y2="45" stroke="black" stroke-width="1"/>
        <path d="M 25 45 l -6 +2.0 v -4 z" fill="black"/>
      <text x="125" y="45" text-anchor="end" dominant-baseline="middle" font-family="Helvetica" font-size="6" font-weight="regular" fill="black">maximum</text>
        <line x1="127" y1="45" x2="141" y2="45" stroke="black" stroke-width="1"/>
        <path d="M 147 45 l -6 +2.0 v -4 z" fill="black"/>
      <text x="27" y="55" text-anchor="start" dominant-baseline="middle" font-family="Helvetica" font-size="6" font-weight="regular" fill="black">decrement</text>
        <line x1="19" y1="55" x2="5" y2="55" stroke="black" stroke-width="1"/>
        <path d="M 25 55 l -6 +2.0 v -4 z" fill="black"/>
      <text x="125" y="55" text-anchor="end" dominant-baseline="middle" font-family="Helvetica" font-size="6" font-weight="regular" fill="black">underflow</text>
        <line x1="127" y1="55" x2="141" y2="55" stroke="black" stroke-width="1"/>
        <path d="M 147 55 l -6 +2.0 v -4 z" fill="black"/>
      <text x="27" y="65" text-anchor="start" dominant-baseline="middle" font-family="Helvetica" font-size="6" font-weight="regular" fill="black">increment</text>
        <line x1="19" y1="65" x2="5" y2="65" stroke="black" stroke-width="1"/>
        <path d="M 25 65 l -6 +2.0 v -4 z" fill="black"/>
      <text x="125" y="65" text-anchor="end" dominant-baseline="middle" font-family="Helvetica" font-size="6" font-weight="regular" fill="black">overflow</text>
        <line x1="127" y1="65" x2="141" y2="65" stroke="black" stroke-width="1"/>
        <path d="M 147 65 l -6 +2.0 v -4 z" fill="black"/>
      <text x="27" y="75" text-anchor="start" dominant-baseline="middle" font-family="Helvetica" font-size="6" font-weight="regular" fill="black">load_count</text>
        <line x1="19" y1="75" x2="5" y2="75" stroke="black" stroke-width="1"/>
        <path d="M 25 75 l -6 +2.0 v -4 z" fill="black"/>
          <line x1="8" y1="73" x2="12" y2="77" stroke="black" stroke-width="1"/>
      <text x="125" y="75" text-anchor="end" dominant-baseline="middle" font-family="Helvetica" font-size="6" font-weight="regular" fill="black">count_gray</text>
        <line x1="127" y1="75" x2="141" y2="75" stroke="black" stroke-width="1"/>
        <path d="M 147 75 l -6 +2.0 v -4 z" fill="black"/>
          <line x1="130" y1="73" x2="134" y2="77" stroke="black" stroke-width="1"/>
      <text x="27" y="85" text-anchor="start" dominant-baseline="middle" font-family="Helvetica" font-size="6" font-weight="regular" fill="black">load_enable</text>
        <line x1="19" y1="85" x2="5" y2="85" stroke="black" stroke-width="1"/>
        <path d="M 25 85 l -6 +2.0 v -4 z" fill="black"/>
      <text x="125" y="85" text-anchor="end" dominant-baseline="middle" font-family="Helvetica" font-size="6" font-weight="regular" fill="black">count_binary</text>
        <line x1="127" y1="85" x2="141" y2="85" stroke="black" stroke-width="1"/>
        <path d="M 147 85 l -6 +2.0 v -4 z" fill="black"/>
          <line x1="130" y1="83" x2="134" y2="87" stroke="black" stroke-width="1"/>
    <style>
      @media (prefers-color-scheme: dark) {
        :root {
          filter: invert(100%) hue-rotate(180deg);
        }
      }
    </style>
</svg>