<svg width="386" height="480" viewBox="0 0 193 240" xmlns="http://www.w3.org/2000/svg">
  <rect x="25" y="5" width="143" height="230" fill="none" stroke="black" stroke-width="1" rx="5"/>
  <text x="96" y="12" text-anchor="middle" dominant-baseline="middle" font-family="Helvetica" font-size="8" font-weight="bold" fill="black">Advanced FIFO Controller</text>
  <text x="96" y="21" text-anchor="middle" dominant-baseline="middle" font-family="Helvetica" font-size="6" font-weight="regular" fill="black">advanced_fifo_controller</text>
      <text x="27" y="35" text-anchor="start" dominant-baseline="middle" font-family="Helvetica" font-size="6" font-weight="regular" fill="black">clock</text>
        <line x1="19" y1="35" x2="5" y2="35" stroke="black" stroke-width="1"/>
        <path d="M 25 35 l -6 +2.0 v -4 z" fill="black"/>
      <text x="27" y="45" text-anchor="start" dominant-baseline="middle" font-family="Helvetica" font-size="6" font-weight="regular" fill="black">resetn</text>
        <line x1="19" y1="45" x2="5" y2="45" stroke="black" stroke-width="1"/>
        <path d="M 25 45 l -6 +2.0 v -4 z" fill="black"/>
      <text x="27" y="55" text-anchor="start" dominant-baseline="middle" font-family="Helvetica" font-size="6" font-weight="regular" fill="black">flush</text>
        <line x1="19" y1="55" x2="5" y2="55" stroke="black" stroke-width="1"/>
        <path d="M 25 55 l -6 +2.0 v -4 z" fill="black"/>
      <text x="27" y="65" text-anchor="start" dominant-baseline="middle" font-family="Helvetica" font-size="6" font-weight="regular" fill="black">write_enable</text>
        <line x1="19" y1="65" x2="5" y2="65" stroke="black" stroke-width="1"/>
        <path d="M 25 65 l -6 +2.0 v -4 z" fill="black"/>
      <text x="166" y="65" text-anchor="end" dominant-baseline="middle" font-family="Helvetica" font-size="6" font-weight="regular" fill="black">read_enable</text>
        <line x1="174" y1="65" x2="188" y2="65" stroke="black" stroke-width="1"/>
        <path d="M 168 65 l +6 +2.0 v -4 z" fill="black"/>
      <text x="27" y="75" text-anchor="start" dominant-baseline="middle" font-family="Helvetica" font-size="6" font-weight="regular" fill="black">write_data</text>
        <line x1="19" y1="75" x2="5" y2="75" stroke="black" stroke-width="1"/>
        <path d="M 25 75 l -6 +2.0 v -4 z" fill="black"/>
          <line x1="8" y1="73" x2="12" y2="77" stroke="black" stroke-width="1"/>
      <text x="166" y="75" text-anchor="end" dominant-baseline="middle" font-family="Helvetica" font-size="6" font-weight="regular" fill="black">read_data</text>
        <line x1="168" y1="75" x2="182" y2="75" stroke="black" stroke-width="1"/>
        <path d="M 188 75 l -6 +2.0 v -4 z" fill="black"/>
          <line x1="171" y1="73" x2="175" y2="77" stroke="black" stroke-width="1"/>
      <text x="27" y="85" text-anchor="start" dominant-baseline="middle" font-family="Helvetica" font-size="6" font-weight="regular" fill="black">write_miss</text>
        <line x1="25" y1="85" x2="11" y2="85" stroke="black" stroke-width="1"/>
        <path d="M 5 85 l +6 +2.0 v -4 z" fill="black"/>
      <text x="166" y="85" text-anchor="end" dominant-baseline="middle" font-family="Helvetica" font-size="6" font-weight="regular" fill="black">read_error</text>
        <line x1="168" y1="85" x2="182" y2="85" stroke="black" stroke-width="1"/>
        <path d="M 188 85 l -6 +2.0 v -4 z" fill="black"/>
      <text x="27" y="95" text-anchor="start" dominant-baseline="middle" font-family="Helvetica" font-size="6" font-weight="regular" fill="black">full</text>
        <line x1="25" y1="95" x2="11" y2="95" stroke="black" stroke-width="1"/>
        <path d="M 5 95 l +6 +2.0 v -4 z" fill="black"/>
      <text x="166" y="95" text-anchor="end" dominant-baseline="middle" font-family="Helvetica" font-size="6" font-weight="regular" fill="black">empty</text>
        <line x1="168" y1="95" x2="182" y2="95" stroke="black" stroke-width="1"/>
        <path d="M 188 95 l -6 +2.0 v -4 z" fill="black"/>
      <text x="27" y="105" text-anchor="start" dominant-baseline="middle" font-family="Helvetica" font-size="6" font-weight="regular" fill="black">almost_full</text>
        <line x1="25" y1="105" x2="11" y2="105" stroke="black" stroke-width="1"/>
        <path d="M 5 105 l +6 +2.0 v -4 z" fill="black"/>
      <text x="166" y="105" text-anchor="end" dominant-baseline="middle" font-family="Helvetica" font-size="6" font-weight="regular" fill="black">almost_empty</text>
        <line x1="168" y1="105" x2="182" y2="105" stroke="black" stroke-width="1"/>
        <path d="M 188 105 l -6 +2.0 v -4 z" fill="black"/>
      <text x="27" y="115" text-anchor="start" dominant-baseline="middle" font-family="Helvetica" font-size="6" font-weight="regular" fill="black">half_full</text>
        <line x1="25" y1="115" x2="11" y2="115" stroke="black" stroke-width="1"/>
        <path d="M 5 115 l +6 +2.0 v -4 z" fill="black"/>
      <text x="166" y="115" text-anchor="end" dominant-baseline="middle" font-family="Helvetica" font-size="6" font-weight="regular" fill="black">half_empty</text>
        <line x1="168" y1="115" x2="182" y2="115" stroke="black" stroke-width="1"/>
        <path d="M 188 115 l -6 +2.0 v -4 z" fill="black"/>
      <text x="27" y="125" text-anchor="start" dominant-baseline="middle" font-family="Helvetica" font-size="6" font-weight="regular" fill="black">not_full</text>
        <line x1="25" y1="125" x2="11" y2="125" stroke="black" stroke-width="1"/>
        <path d="M 5 125 l +6 +2.0 v -4 z" fill="black"/>
      <text x="166" y="125" text-anchor="end" dominant-baseline="middle" font-family="Helvetica" font-size="6" font-weight="regular" fill="black">not_empty</text>
        <line x1="168" y1="125" x2="182" y2="125" stroke="black" stroke-width="1"/>
        <path d="M 188 125 l -6 +2.0 v -4 z" fill="black"/>
      <text x="27" y="135" text-anchor="start" dominant-baseline="middle" font-family="Helvetica" font-size="6" font-weight="regular" fill="black">space</text>
        <line x1="25" y1="135" x2="11" y2="135" stroke="black" stroke-width="1"/>
        <path d="M 5 135 l +6 +2.0 v -4 z" fill="black"/>
          <line x1="18" y1="133" x2="22" y2="137" stroke="black" stroke-width="1"/>
      <text x="166" y="135" text-anchor="end" dominant-baseline="middle" font-family="Helvetica" font-size="6" font-weight="regular" fill="black">level</text>
        <line x1="168" y1="135" x2="182" y2="135" stroke="black" stroke-width="1"/>
        <path d="M 188 135 l -6 +2.0 v -4 z" fill="black"/>
          <line x1="171" y1="133" x2="175" y2="137" stroke="black" stroke-width="1"/>
      <text x="27" y="145" text-anchor="start" dominant-baseline="middle" font-family="Helvetica" font-size="6" font-weight="regular" fill="black">lower_threshold_level</text>
        <line x1="19" y1="145" x2="5" y2="145" stroke="black" stroke-width="1"/>
        <path d="M 25 145 l -6 +2.0 v -4 z" fill="black"/>
          <line x1="8" y1="143" x2="12" y2="147" stroke="black" stroke-width="1"/>
      <text x="166" y="145" text-anchor="end" dominant-baseline="middle" font-family="Helvetica" font-size="6" font-weight="regular" fill="black">upper_threshold_level</text>
        <line x1="174" y1="145" x2="188" y2="145" stroke="black" stroke-width="1"/>
        <path d="M 168 145 l +6 +2.0 v -4 z" fill="black"/>
          <line x1="181" y1="143" x2="185" y2="147" stroke="black" stroke-width="1"/>
      <text x="27" y="155" text-anchor="start" dominant-baseline="middle" font-family="Helvetica" font-size="6" font-weight="regular" fill="black">lower_threshold_status</text>
        <line x1="25" y1="155" x2="11" y2="155" stroke="black" stroke-width="1"/>
        <path d="M 5 155 l +6 +2.0 v -4 z" fill="black"/>
      <text x="166" y="155" text-anchor="end" dominant-baseline="middle" font-family="Helvetica" font-size="6" font-weight="regular" fill="black">upper_threshold_status</text>
        <line x1="168" y1="155" x2="182" y2="155" stroke="black" stroke-width="1"/>
        <path d="M 188 155 l -6 +2.0 v -4 z" fill="black"/>
      <text x="166" y="165" text-anchor="end" dominant-baseline="middle" font-family="Helvetica" font-size="6" font-weight="regular" fill="black">memory_clock</text>
        <line x1="168" y1="165" x2="182" y2="165" stroke="black" stroke-width="1"/>
        <path d="M 188 165 l -6 +2.0 v -4 z" fill="black"/>
      <text x="166" y="175" text-anchor="end" dominant-baseline="middle" font-family="Helvetica" font-size="6" font-weight="regular" fill="black">memory_write_enable</text>
        <line x1="168" y1="175" x2="182" y2="175" stroke="black" stroke-width="1"/>
        <path d="M 188 175 l -6 +2.0 v -4 z" fill="black"/>
      <text x="166" y="185" text-anchor="end" dominant-baseline="middle" font-family="Helvetica" font-size="6" font-weight="regular" fill="black">memory_write_address</text>
        <line x1="168" y1="185" x2="182" y2="185" stroke="black" stroke-width="1"/>
        <path d="M 188 185 l -6 +2.0 v -4 z" fill="black"/>
          <line x1="171" y1="183" x2="175" y2="187" stroke="black" stroke-width="1"/>
      <text x="166" y="195" text-anchor="end" dominant-baseline="middle" font-family="Helvetica" font-size="6" font-weight="regular" fill="black">memory_write_data</text>
        <line x1="168" y1="195" x2="182" y2="195" stroke="black" stroke-width="1"/>
        <path d="M 188 195 l -6 +2.0 v -4 z" fill="black"/>
          <line x1="171" y1="193" x2="175" y2="197" stroke="black" stroke-width="1"/>
      <text x="166" y="205" text-anchor="end" dominant-baseline="middle" font-family="Helvetica" font-size="6" font-weight="regular" fill="black">memory_read_enable</text>
        <line x1="168" y1="205" x2="182" y2="205" stroke="black" stroke-width="1"/>
        <path d="M 188 205 l -6 +2.0 v -4 z" fill="black"/>
      <text x="166" y="215" text-anchor="end" dominant-baseline="middle" font-family="Helvetica" font-size="6" font-weight="regular" fill="black">memory_read_address</text>
        <line x1="168" y1="215" x2="182" y2="215" stroke="black" stroke-width="1"/>
        <path d="M 188 215 l -6 +2.0 v -4 z" fill="black"/>
          <line x1="171" y1="213" x2="175" y2="217" stroke="black" stroke-width="1"/>
      <text x="166" y="225" text-anchor="end" dominant-baseline="middle" font-family="Helvetica" font-size="6" font-weight="regular" fill="black">memory_read_data</text>
        <line x1="174" y1="225" x2="188" y2="225" stroke="black" stroke-width="1"/>
        <path d="M 168 225 l +6 +2.0 v -4 z" fill="black"/>
          <line x1="181" y1="223" x2="185" y2="227" stroke="black" stroke-width="1"/>
    <style>
      @media (prefers-color-scheme: dark) {
        :root {
          filter: invert(100%) hue-rotate(180deg);
        }
      }
    </style>
</svg>