<svg width="424" height="120" viewBox="0 0 212 60" xmlns="http://www.w3.org/2000/svg">
  <rect x="48" y="5" width="83" height="50" fill="none" stroke="black" stroke-width="1" rx="5"/>
  <text x="89" y="12" text-anchor="middle" dominant-baseline="middle" font-family="Helvetica" font-size="8" font-weight="bold" fill="black">Repetition Encoder</text>
  <text x="89" y="21" text-anchor="middle" dominant-baseline="middle" font-family="Helvetica" font-size="6" font-weight="regular" fill="black">repetition_encoder</text>
      <text x="50" y="35" text-anchor="start" dominant-baseline="middle" font-family="Helvetica" font-size="6" font-weight="regular" fill="black">data</text>
        <line x1="42" y1="35" x2="5" y2="35" stroke="black" stroke-width="1"/>
        <path d="M 48 35 l -6 +2.0 v -4 z" fill="black"/>
          <line x1="8" y1="33" x2="12" y2="37" stroke="black" stroke-width="1"/>
          <text x="26" y="32" text-anchor="middle" dominant-baseline="middle" font-family="Helvetica" font-size="4" font-weight="regular" fill="black">DATA_WIDTH</text>
      <text x="129" y="35" text-anchor="end" dominant-baseline="middle" font-family="Helvetica" font-size="6" font-weight="regular" fill="black">code</text>
        <line x1="131" y1="35" x2="201" y2="35" stroke="black" stroke-width="1"/>
        <path d="M 207 35 l -6 +2.0 v -4 z" fill="black"/>
          <line x1="134" y1="33" x2="138" y2="37" stroke="black" stroke-width="1"/>
          <text x="169" y="32" text-anchor="middle" dominant-baseline="middle" font-family="Helvetica" font-size="4" font-weight="regular" fill="black">(REPETITION-1)×DATA_WIDTH</text>
      <text x="129" y="45" text-anchor="end" dominant-baseline="middle" font-family="Helvetica" font-size="6" font-weight="regular" fill="black">block</text>
        <line x1="131" y1="45" x2="201" y2="45" stroke="black" stroke-width="1"/>
        <path d="M 207 45 l -6 +2.0 v -4 z" fill="black"/>
          <line x1="134" y1="43" x2="138" y2="47" stroke="black" stroke-width="1"/>
          <text x="169" y="42" text-anchor="middle" dominant-baseline="middle" font-family="Helvetica" font-size="4" font-weight="regular" fill="black">REPETITION×DATA_WIDTH</text>
    <style>
      @media (prefers-color-scheme: dark) {
        :root {
          filter: invert(100%) hue-rotate(180deg);
        }
      }
    </style>
</svg>