<svg width="292" height="160" viewBox="0 0 146 80" xmlns="http://www.w3.org/2000/svg">
  <rect x="25" y="5" width="96" height="70" fill="none" stroke="black" stroke-width="1" rx="5"/>
  <text x="73" y="12" text-anchor="middle" dominant-baseline="middle" font-family="Helvetica" font-size="8" font-weight="bold" fill="black">Simple Dual-Port RAM</text>
  <text x="73" y="21" text-anchor="middle" dominant-baseline="middle" font-family="Helvetica" font-size="6" font-weight="regular" fill="black">simple_dual_port_ram</text>
      <text x="27" y="35" text-anchor="start" dominant-baseline="middle" font-family="Helvetica" font-size="6" font-weight="regular" fill="black">clock</text>
        <line x1="19" y1="35" x2="5" y2="35" stroke="black" stroke-width="1"/>
        <path d="M 25 35 l -6 +2.0 v -4 z" fill="black"/>
      <text x="27" y="45" text-anchor="start" dominant-baseline="middle" font-family="Helvetica" font-size="6" font-weight="regular" fill="black">write_enable</text>
        <line x1="19" y1="45" x2="5" y2="45" stroke="black" stroke-width="1"/>
        <path d="M 25 45 l -6 +2.0 v -4 z" fill="black"/>
      <text x="119" y="45" text-anchor="end" dominant-baseline="middle" font-family="Helvetica" font-size="6" font-weight="regular" fill="black">read_enable</text>
        <line x1="127" y1="45" x2="141" y2="45" stroke="black" stroke-width="1"/>
        <path d="M 121 45 l +6 +2.0 v -4 z" fill="black"/>
      <text x="27" y="55" text-anchor="start" dominant-baseline="middle" font-family="Helvetica" font-size="6" font-weight="regular" fill="black">write_address</text>
        <line x1="19" y1="55" x2="5" y2="55" stroke="black" stroke-width="1"/>
        <path d="M 25 55 l -6 +2.0 v -4 z" fill="black"/>
          <line x1="8" y1="53" x2="12" y2="57" stroke="black" stroke-width="1"/>
      <text x="119" y="55" text-anchor="end" dominant-baseline="middle" font-family="Helvetica" font-size="6" font-weight="regular" fill="black">read_address</text>
        <line x1="127" y1="55" x2="141" y2="55" stroke="black" stroke-width="1"/>
        <path d="M 121 55 l +6 +2.0 v -4 z" fill="black"/>
          <line x1="134" y1="53" x2="138" y2="57" stroke="black" stroke-width="1"/>
      <text x="27" y="65" text-anchor="start" dominant-baseline="middle" font-family="Helvetica" font-size="6" font-weight="regular" fill="black">write_data</text>
        <line x1="19" y1="65" x2="5" y2="65" stroke="black" stroke-width="1"/>
        <path d="M 25 65 l -6 +2.0 v -4 z" fill="black"/>
          <line x1="8" y1="63" x2="12" y2="67" stroke="black" stroke-width="1"/>
      <text x="119" y="65" text-anchor="end" dominant-baseline="middle" font-family="Helvetica" font-size="6" font-weight="regular" fill="black">read_data</text>
        <line x1="121" y1="65" x2="135" y2="65" stroke="black" stroke-width="1"/>
        <path d="M 141 65 l -6 +2.0 v -4 z" fill="black"/>
          <line x1="124" y1="63" x2="128" y2="67" stroke="black" stroke-width="1"/>
    <style>
      @media (prefers-color-scheme: dark) {
        :root {
          filter: invert(100%) hue-rotate(180deg);
        }
      }
    </style>
</svg>