<svg width="446" height="280" viewBox="0 0 223 140" xmlns="http://www.w3.org/2000/svg">
  <rect x="48" y="5" width="127" height="130" fill="none" stroke="black" stroke-width="1" rx="5"/>
  <text x="111" y="12" text-anchor="middle" dominant-baseline="middle" font-family="Helvetica" font-size="8" font-weight="bold" fill="black">Content-Addressable Memory</text>
  <text x="111" y="21" text-anchor="middle" dominant-baseline="middle" font-family="Helvetica" font-size="6" font-weight="regular" fill="black">content_addressable_memory</text>
      <text x="50" y="35" text-anchor="start" dominant-baseline="middle" font-family="Helvetica" font-size="6" font-weight="regular" fill="black">clock</text>
        <line x1="42" y1="35" x2="5" y2="35" stroke="black" stroke-width="1"/>
        <path d="M 48 35 l -6 +2.0 v -4 z" fill="black"/>
      <text x="50" y="45" text-anchor="start" dominant-baseline="middle" font-family="Helvetica" font-size="6" font-weight="regular" fill="black">resetn</text>
        <line x1="42" y1="45" x2="5" y2="45" stroke="black" stroke-width="1"/>
        <path d="M 48 45 l -6 +2.0 v -4 z" fill="black"/>
      <text x="50" y="55" text-anchor="start" dominant-baseline="middle" font-family="Helvetica" font-size="6" font-weight="regular" fill="black">full</text>
        <line x1="48" y1="55" x2="11" y2="55" stroke="black" stroke-width="1"/>
        <path d="M 5 55 l +6 +2.0 v -4 z" fill="black"/>
      <text x="173" y="55" text-anchor="end" dominant-baseline="middle" font-family="Helvetica" font-size="6" font-weight="regular" fill="black">empty</text>
        <line x1="175" y1="55" x2="212" y2="55" stroke="black" stroke-width="1"/>
        <path d="M 218 55 l -6 +2.0 v -4 z" fill="black"/>
      <text x="50" y="65" text-anchor="start" dominant-baseline="middle" font-family="Helvetica" font-size="6" font-weight="regular" fill="black">write_enable</text>
        <line x1="42" y1="65" x2="5" y2="65" stroke="black" stroke-width="1"/>
        <path d="M 48 65 l -6 +2.0 v -4 z" fill="black"/>
      <text x="173" y="65" text-anchor="end" dominant-baseline="middle" font-family="Helvetica" font-size="6" font-weight="regular" fill="black">read_enable</text>
        <line x1="181" y1="65" x2="218" y2="65" stroke="black" stroke-width="1"/>
        <path d="M 175 65 l +6 +2.0 v -4 z" fill="black"/>
      <text x="50" y="75" text-anchor="start" dominant-baseline="middle" font-family="Helvetica" font-size="6" font-weight="regular" fill="black">write_tag</text>
        <line x1="42" y1="75" x2="5" y2="75" stroke="black" stroke-width="1"/>
        <path d="M 48 75 l -6 +2.0 v -4 z" fill="black"/>
          <line x1="8" y1="73" x2="12" y2="77" stroke="black" stroke-width="1"/>
          <text x="26" y="72" text-anchor="middle" dominant-baseline="middle" font-family="Helvetica" font-size="4" font-weight="regular" fill="black">TAG_WIDTH</text>
      <text x="173" y="75" text-anchor="end" dominant-baseline="middle" font-family="Helvetica" font-size="6" font-weight="regular" fill="black">read_tag</text>
        <line x1="181" y1="75" x2="218" y2="75" stroke="black" stroke-width="1"/>
        <path d="M 175 75 l +6 +2.0 v -4 z" fill="black"/>
          <line x1="211" y1="73" x2="215" y2="77" stroke="black" stroke-width="1"/>
          <text x="196" y="72" text-anchor="middle" dominant-baseline="middle" font-family="Helvetica" font-size="4" font-weight="regular" fill="black">TAG_WIDTH</text>
      <text x="50" y="85" text-anchor="start" dominant-baseline="middle" font-family="Helvetica" font-size="6" font-weight="regular" fill="black">write_data</text>
        <line x1="42" y1="85" x2="5" y2="85" stroke="black" stroke-width="1"/>
        <path d="M 48 85 l -6 +2.0 v -4 z" fill="black"/>
          <line x1="8" y1="83" x2="12" y2="87" stroke="black" stroke-width="1"/>
          <text x="26" y="82" text-anchor="middle" dominant-baseline="middle" font-family="Helvetica" font-size="4" font-weight="regular" fill="black">DATA_WIDTH</text>
      <text x="173" y="85" text-anchor="end" dominant-baseline="middle" font-family="Helvetica" font-size="6" font-weight="regular" fill="black">read_data</text>
        <line x1="175" y1="85" x2="212" y2="85" stroke="black" stroke-width="1"/>
        <path d="M 218 85 l -6 +2.0 v -4 z" fill="black"/>
          <line x1="178" y1="83" x2="182" y2="87" stroke="black" stroke-width="1"/>
          <text x="196" y="82" text-anchor="middle" dominant-baseline="middle" font-family="Helvetica" font-size="4" font-weight="regular" fill="black">DATA_WIDTH</text>
      <text x="173" y="95" text-anchor="end" dominant-baseline="middle" font-family="Helvetica" font-size="6" font-weight="regular" fill="black">read_hit</text>
        <line x1="175" y1="95" x2="212" y2="95" stroke="black" stroke-width="1"/>
        <path d="M 218 95 l -6 +2.0 v -4 z" fill="black"/>
      <text x="173" y="105" text-anchor="end" dominant-baseline="middle" font-family="Helvetica" font-size="6" font-weight="regular" fill="black">delete_enable</text>
        <line x1="181" y1="105" x2="218" y2="105" stroke="black" stroke-width="1"/>
        <path d="M 175 105 l +6 +2.0 v -4 z" fill="black"/>
      <text x="173" y="115" text-anchor="end" dominant-baseline="middle" font-family="Helvetica" font-size="6" font-weight="regular" fill="black">delete_tag</text>
        <line x1="181" y1="115" x2="218" y2="115" stroke="black" stroke-width="1"/>
        <path d="M 175 115 l +6 +2.0 v -4 z" fill="black"/>
          <line x1="211" y1="113" x2="215" y2="117" stroke="black" stroke-width="1"/>
          <text x="196" y="112" text-anchor="middle" dominant-baseline="middle" font-family="Helvetica" font-size="4" font-weight="regular" fill="black">TAG_WIDTH</text>
      <text x="173" y="125" text-anchor="end" dominant-baseline="middle" font-family="Helvetica" font-size="6" font-weight="regular" fill="black">delete_hit</text>
        <line x1="175" y1="125" x2="212" y2="125" stroke="black" stroke-width="1"/>
        <path d="M 218 125 l -6 +2.0 v -4 z" fill="black"/>
    <style>
      @media (prefers-color-scheme: dark) {
        :root {
          filter: invert(100%) hue-rotate(180deg);
        }
      }
    </style>
</svg>