<svg width="354" height="280" viewBox="0 0 177 140" xmlns="http://www.w3.org/2000/svg">
  <rect x="25" y="5" width="127" height="130" fill="none" stroke="black" stroke-width="1" rx="5"/>
  <text x="88" y="12" text-anchor="middle" dominant-baseline="middle" font-family="Helvetica" font-size="8" font-weight="bold" fill="black">Content-Addressable Memory</text>
  <text x="88" y="21" text-anchor="middle" dominant-baseline="middle" font-family="Helvetica" font-size="6" font-weight="regular" fill="black">content_addressable_memory</text>
      <text x="27" y="35" text-anchor="start" dominant-baseline="middle" font-family="Helvetica" font-size="6" font-weight="regular" fill="black">clock</text>
        <line x1="19" y1="35" x2="5" y2="35" stroke="black" stroke-width="1"/>
        <path d="M 25 35 l -6 +2.0 v -4 z" fill="black"/>
      <text x="27" y="45" text-anchor="start" dominant-baseline="middle" font-family="Helvetica" font-size="6" font-weight="regular" fill="black">resetn</text>
        <line x1="19" y1="45" x2="5" y2="45" stroke="black" stroke-width="1"/>
        <path d="M 25 45 l -6 +2.0 v -4 z" fill="black"/>
      <text x="27" y="55" text-anchor="start" dominant-baseline="middle" font-family="Helvetica" font-size="6" font-weight="regular" fill="black">full</text>
        <line x1="25" y1="55" x2="11" y2="55" stroke="black" stroke-width="1"/>
        <path d="M 5 55 l +6 +2.0 v -4 z" fill="black"/>
      <text x="150" y="55" text-anchor="end" dominant-baseline="middle" font-family="Helvetica" font-size="6" font-weight="regular" fill="black">empty</text>
        <line x1="152" y1="55" x2="166" y2="55" stroke="black" stroke-width="1"/>
        <path d="M 172 55 l -6 +2.0 v -4 z" fill="black"/>
      <text x="27" y="65" text-anchor="start" dominant-baseline="middle" font-family="Helvetica" font-size="6" font-weight="regular" fill="black">write_enable</text>
        <line x1="19" y1="65" x2="5" y2="65" stroke="black" stroke-width="1"/>
        <path d="M 25 65 l -6 +2.0 v -4 z" fill="black"/>
      <text x="150" y="65" text-anchor="end" dominant-baseline="middle" font-family="Helvetica" font-size="6" font-weight="regular" fill="black">read_enable</text>
        <line x1="158" y1="65" x2="172" y2="65" stroke="black" stroke-width="1"/>
        <path d="M 152 65 l +6 +2.0 v -4 z" fill="black"/>
      <text x="27" y="75" text-anchor="start" dominant-baseline="middle" font-family="Helvetica" font-size="6" font-weight="regular" fill="black">write_tag</text>
        <line x1="19" y1="75" x2="5" y2="75" stroke="black" stroke-width="1"/>
        <path d="M 25 75 l -6 +2.0 v -4 z" fill="black"/>
          <line x1="8" y1="73" x2="12" y2="77" stroke="black" stroke-width="1"/>
      <text x="150" y="75" text-anchor="end" dominant-baseline="middle" font-family="Helvetica" font-size="6" font-weight="regular" fill="black">read_tag</text>
        <line x1="158" y1="75" x2="172" y2="75" stroke="black" stroke-width="1"/>
        <path d="M 152 75 l +6 +2.0 v -4 z" fill="black"/>
          <line x1="165" y1="73" x2="169" y2="77" stroke="black" stroke-width="1"/>
      <text x="27" y="85" text-anchor="start" dominant-baseline="middle" font-family="Helvetica" font-size="6" font-weight="regular" fill="black">write_data</text>
        <line x1="19" y1="85" x2="5" y2="85" stroke="black" stroke-width="1"/>
        <path d="M 25 85 l -6 +2.0 v -4 z" fill="black"/>
          <line x1="8" y1="83" x2="12" y2="87" stroke="black" stroke-width="1"/>
      <text x="150" y="85" text-anchor="end" dominant-baseline="middle" font-family="Helvetica" font-size="6" font-weight="regular" fill="black">read_data</text>
        <line x1="152" y1="85" x2="166" y2="85" stroke="black" stroke-width="1"/>
        <path d="M 172 85 l -6 +2.0 v -4 z" fill="black"/>
          <line x1="155" y1="83" x2="159" y2="87" stroke="black" stroke-width="1"/>
      <text x="150" y="95" text-anchor="end" dominant-baseline="middle" font-family="Helvetica" font-size="6" font-weight="regular" fill="black">read_hit</text>
        <line x1="152" y1="95" x2="166" y2="95" stroke="black" stroke-width="1"/>
        <path d="M 172 95 l -6 +2.0 v -4 z" fill="black"/>
      <text x="150" y="105" text-anchor="end" dominant-baseline="middle" font-family="Helvetica" font-size="6" font-weight="regular" fill="black">delete_enable</text>
        <line x1="158" y1="105" x2="172" y2="105" stroke="black" stroke-width="1"/>
        <path d="M 152 105 l +6 +2.0 v -4 z" fill="black"/>
      <text x="150" y="115" text-anchor="end" dominant-baseline="middle" font-family="Helvetica" font-size="6" font-weight="regular" fill="black">delete_tag</text>
        <line x1="158" y1="115" x2="172" y2="115" stroke="black" stroke-width="1"/>
        <path d="M 152 115 l +6 +2.0 v -4 z" fill="black"/>
          <line x1="165" y1="113" x2="169" y2="117" stroke="black" stroke-width="1"/>
      <text x="150" y="125" text-anchor="end" dominant-baseline="middle" font-family="Helvetica" font-size="6" font-weight="regular" fill="black">delete_hit</text>
        <line x1="152" y1="125" x2="166" y2="125" stroke="black" stroke-width="1"/>
        <path d="M 172 125 l -6 +2.0 v -4 z" fill="black"/>
    <style>
      @media (prefers-color-scheme: dark) {
        :root {
          filter: invert(100%) hue-rotate(180deg);
        }
      }
    </style>
</svg>