<svg width="416" height="180" viewBox="0 0 208 90" xmlns="http://www.w3.org/2000/svg">
  <rect x="25" y="5" width="158" height="80" fill="none" stroke="black" stroke-width="1" rx="5"/>
  <text x="104" y="12" text-anchor="middle" dominant-baseline="middle" font-family="Helvetica" font-size="8" font-weight="bold" fill="black">Asynchronous simple Dual-Port RAM</text>
  <text x="104" y="21" text-anchor="middle" dominant-baseline="middle" font-family="Helvetica" font-size="6" font-weight="regular" fill="black">asynchronous_simple_dual_port_ram</text>
      <text x="27" y="35" text-anchor="start" dominant-baseline="middle" font-family="Helvetica" font-size="6" font-weight="regular" fill="black">write_clock</text>
        <line x1="19" y1="35" x2="5" y2="35" stroke="black" stroke-width="1"/>
        <path d="M 25 35 l -6 +2.0 v -4 z" fill="black"/>
      <text x="181" y="35" text-anchor="end" dominant-baseline="middle" font-family="Helvetica" font-size="6" font-weight="regular" fill="black">read_clock</text>
        <line x1="189" y1="35" x2="203" y2="35" stroke="black" stroke-width="1"/>
        <path d="M 183 35 l +6 +2.0 v -4 z" fill="black"/>
      <text x="27" y="45" text-anchor="start" dominant-baseline="middle" font-family="Helvetica" font-size="6" font-weight="regular" fill="black">write_resetn</text>
        <line x1="19" y1="45" x2="5" y2="45" stroke="black" stroke-width="1"/>
        <path d="M 25 45 l -6 +2.0 v -4 z" fill="black"/>
      <text x="181" y="45" text-anchor="end" dominant-baseline="middle" font-family="Helvetica" font-size="6" font-weight="regular" fill="black">read_resetn</text>
        <line x1="189" y1="45" x2="203" y2="45" stroke="black" stroke-width="1"/>
        <path d="M 183 45 l +6 +2.0 v -4 z" fill="black"/>
      <text x="27" y="55" text-anchor="start" dominant-baseline="middle" font-family="Helvetica" font-size="6" font-weight="regular" fill="black">write_enable</text>
        <line x1="19" y1="55" x2="5" y2="55" stroke="black" stroke-width="1"/>
        <path d="M 25 55 l -6 +2.0 v -4 z" fill="black"/>
      <text x="181" y="55" text-anchor="end" dominant-baseline="middle" font-family="Helvetica" font-size="6" font-weight="regular" fill="black">read_enable</text>
        <line x1="189" y1="55" x2="203" y2="55" stroke="black" stroke-width="1"/>
        <path d="M 183 55 l +6 +2.0 v -4 z" fill="black"/>
      <text x="27" y="65" text-anchor="start" dominant-baseline="middle" font-family="Helvetica" font-size="6" font-weight="regular" fill="black">write_address</text>
        <line x1="19" y1="65" x2="5" y2="65" stroke="black" stroke-width="1"/>
        <path d="M 25 65 l -6 +2.0 v -4 z" fill="black"/>
          <line x1="8" y1="63" x2="12" y2="67" stroke="black" stroke-width="1"/>
      <text x="181" y="65" text-anchor="end" dominant-baseline="middle" font-family="Helvetica" font-size="6" font-weight="regular" fill="black">read_address</text>
        <line x1="189" y1="65" x2="203" y2="65" stroke="black" stroke-width="1"/>
        <path d="M 183 65 l +6 +2.0 v -4 z" fill="black"/>
          <line x1="196" y1="63" x2="200" y2="67" stroke="black" stroke-width="1"/>
      <text x="27" y="75" text-anchor="start" dominant-baseline="middle" font-family="Helvetica" font-size="6" font-weight="regular" fill="black">write_data</text>
        <line x1="19" y1="75" x2="5" y2="75" stroke="black" stroke-width="1"/>
        <path d="M 25 75 l -6 +2.0 v -4 z" fill="black"/>
          <line x1="8" y1="73" x2="12" y2="77" stroke="black" stroke-width="1"/>
      <text x="181" y="75" text-anchor="end" dominant-baseline="middle" font-family="Helvetica" font-size="6" font-weight="regular" fill="black">read_data</text>
        <line x1="183" y1="75" x2="197" y2="75" stroke="black" stroke-width="1"/>
        <path d="M 203 75 l -6 +2.0 v -4 z" fill="black"/>
          <line x1="186" y1="73" x2="190" y2="77" stroke="black" stroke-width="1"/>
    <style>
      @media (prefers-color-scheme: dark) {
        :root {
          filter: invert(100%) hue-rotate(180deg);
        }
      }
    </style>
</svg>