<svg width="372" height="180" viewBox="0 0 186 90" xmlns="http://www.w3.org/2000/svg">
  <rect x="25" y="5" width="136" height="80" fill="none" stroke="black" stroke-width="1" rx="5"/>
  <text x="93" y="12" text-anchor="middle" dominant-baseline="middle" font-family="Helvetica" font-size="8" font-weight="bold" fill="black">Probabilistic Saturating Counter</text>
  <text x="93" y="21" text-anchor="middle" dominant-baseline="middle" font-family="Helvetica" font-size="6" font-weight="regular" fill="black">probabilistic_saturating_counter</text>
      <text x="27" y="35" text-anchor="start" dominant-baseline="middle" font-family="Helvetica" font-size="6" font-weight="regular" fill="black">clock</text>
        <line x1="19" y1="35" x2="5" y2="35" stroke="black" stroke-width="1"/>
        <path d="M 25 35 l -6 +2.0 v -4 z" fill="black"/>
      <text x="27" y="45" text-anchor="start" dominant-baseline="middle" font-family="Helvetica" font-size="6" font-weight="regular" fill="black">resetn</text>
        <line x1="19" y1="45" x2="5" y2="45" stroke="black" stroke-width="1"/>
        <path d="M 25 45 l -6 +2.0 v -4 z" fill="black"/>
      <text x="27" y="55" text-anchor="start" dominant-baseline="middle" font-family="Helvetica" font-size="6" font-weight="regular" fill="black">increment</text>
        <line x1="19" y1="55" x2="5" y2="55" stroke="black" stroke-width="1"/>
        <path d="M 25 55 l -6 +2.0 v -4 z" fill="black"/>
      <text x="27" y="65" text-anchor="start" dominant-baseline="middle" font-family="Helvetica" font-size="6" font-weight="regular" fill="black">decrement</text>
        <line x1="19" y1="65" x2="5" y2="65" stroke="black" stroke-width="1"/>
        <path d="M 25 65 l -6 +2.0 v -4 z" fill="black"/>
      <text x="159" y="65" text-anchor="end" dominant-baseline="middle" font-family="Helvetica" font-size="6" font-weight="regular" fill="black">count</text>
        <line x1="161" y1="65" x2="175" y2="65" stroke="black" stroke-width="1"/>
        <path d="M 181 65 l -6 +2.0 v -4 z" fill="black"/>
          <line x1="164" y1="63" x2="168" y2="67" stroke="black" stroke-width="1"/>
      <text x="27" y="75" text-anchor="start" dominant-baseline="middle" font-family="Helvetica" font-size="6" font-weight="regular" fill="black">random_number</text>
        <line x1="19" y1="75" x2="5" y2="75" stroke="black" stroke-width="1"/>
        <path d="M 25 75 l -6 +2.0 v -4 z" fill="black"/>
          <line x1="8" y1="73" x2="12" y2="77" stroke="black" stroke-width="1"/>
    <style>
      @media (prefers-color-scheme: dark) {
        :root {
          filter: invert(100%) hue-rotate(180deg);
        }
      }
    </style>
</svg>