<svg width="514" height="180" viewBox="0 0 257 90" xmlns="http://www.w3.org/2000/svg">
  <rect x="77" y="5" width="136" height="80" fill="none" stroke="black" stroke-width="1" rx="5"/>
  <text x="145" y="12" text-anchor="middle" dominant-baseline="middle" font-family="Helvetica" font-size="8" font-weight="bold" fill="black">Probabilistic Saturating Counter</text>
  <text x="145" y="21" text-anchor="middle" dominant-baseline="middle" font-family="Helvetica" font-size="6" font-weight="regular" fill="black">probabilistic_saturating_counter</text>
      <text x="79" y="35" text-anchor="start" dominant-baseline="middle" font-family="Helvetica" font-size="6" font-weight="regular" fill="black">clock</text>
        <line x1="71" y1="35" x2="5" y2="35" stroke="black" stroke-width="1"/>
        <path d="M 77 35 l -6 +2.0 v -4 z" fill="black"/>
      <text x="79" y="45" text-anchor="start" dominant-baseline="middle" font-family="Helvetica" font-size="6" font-weight="regular" fill="black">resetn</text>
        <line x1="71" y1="45" x2="5" y2="45" stroke="black" stroke-width="1"/>
        <path d="M 77 45 l -6 +2.0 v -4 z" fill="black"/>
      <text x="79" y="55" text-anchor="start" dominant-baseline="middle" font-family="Helvetica" font-size="6" font-weight="regular" fill="black">decrement</text>
        <line x1="71" y1="55" x2="5" y2="55" stroke="black" stroke-width="1"/>
        <path d="M 77 55 l -6 +2.0 v -4 z" fill="black"/>
      <text x="79" y="65" text-anchor="start" dominant-baseline="middle" font-family="Helvetica" font-size="6" font-weight="regular" fill="black">increment</text>
        <line x1="71" y1="65" x2="5" y2="65" stroke="black" stroke-width="1"/>
        <path d="M 77 65 l -6 +2.0 v -4 z" fill="black"/>
      <text x="211" y="65" text-anchor="end" dominant-baseline="middle" font-family="Helvetica" font-size="6" font-weight="regular" fill="black">count</text>
        <line x1="213" y1="65" x2="246" y2="65" stroke="black" stroke-width="1"/>
        <path d="M 252 65 l -6 +2.0 v -4 z" fill="black"/>
          <line x1="216" y1="63" x2="220" y2="67" stroke="black" stroke-width="1"/>
          <text x="232" y="62" text-anchor="middle" dominant-baseline="middle" font-family="Helvetica" font-size="4" font-weight="regular" fill="black">log₂(RANGE)</text>
      <text x="79" y="75" text-anchor="start" dominant-baseline="middle" font-family="Helvetica" font-size="6" font-weight="regular" fill="black">random_number</text>
        <line x1="71" y1="75" x2="5" y2="75" stroke="black" stroke-width="1"/>
        <path d="M 77 75 l -6 +2.0 v -4 z" fill="black"/>
          <line x1="8" y1="73" x2="12" y2="77" stroke="black" stroke-width="1"/>
          <text x="41" y="72" text-anchor="middle" dominant-baseline="middle" font-family="Helvetica" font-size="4" font-weight="regular" fill="black">RANDOM_NUMBER_WIDTH</text>
    <style>
      @media (prefers-color-scheme: dark) {
        :root {
          filter: invert(100%) hue-rotate(180deg);
        }
      }
    </style>
</svg>