<svg width="414" height="340" viewBox="0 0 207 170" xmlns="http://www.w3.org/2000/svg">
  <rect x="33" y="5" width="131" height="160" fill="none" stroke="black" stroke-width="1" rx="5"/>
  <text x="98" y="12" text-anchor="middle" dominant-baseline="middle" font-family="Helvetica" font-size="8" font-weight="bold" fill="black">Asynchronous FIFO Controller</text>
  <text x="98" y="21" text-anchor="middle" dominant-baseline="middle" font-family="Helvetica" font-size="6" font-weight="regular" fill="black">asynchronous_fifo_controller</text>
      <text x="35" y="35" text-anchor="start" dominant-baseline="middle" font-family="Helvetica" font-size="6" font-weight="regular" fill="black">write_clock</text>
        <line x1="27" y1="35" x2="5" y2="35" stroke="black" stroke-width="1"/>
        <path d="M 33 35 l -6 +2.0 v -4 z" fill="black"/>
      <text x="162" y="35" text-anchor="end" dominant-baseline="middle" font-family="Helvetica" font-size="6" font-weight="regular" fill="black">read_clock</text>
        <line x1="170" y1="35" x2="202" y2="35" stroke="black" stroke-width="1"/>
        <path d="M 164 35 l +6 +2.0 v -4 z" fill="black"/>
      <text x="35" y="45" text-anchor="start" dominant-baseline="middle" font-family="Helvetica" font-size="6" font-weight="regular" fill="black">write_resetn</text>
        <line x1="27" y1="45" x2="5" y2="45" stroke="black" stroke-width="1"/>
        <path d="M 33 45 l -6 +2.0 v -4 z" fill="black"/>
      <text x="162" y="45" text-anchor="end" dominant-baseline="middle" font-family="Helvetica" font-size="6" font-weight="regular" fill="black">read_resetn</text>
        <line x1="170" y1="45" x2="202" y2="45" stroke="black" stroke-width="1"/>
        <path d="M 164 45 l +6 +2.0 v -4 z" fill="black"/>
      <text x="35" y="55" text-anchor="start" dominant-baseline="middle" font-family="Helvetica" font-size="6" font-weight="regular" fill="black">write_enable</text>
        <line x1="27" y1="55" x2="5" y2="55" stroke="black" stroke-width="1"/>
        <path d="M 33 55 l -6 +2.0 v -4 z" fill="black"/>
      <text x="162" y="55" text-anchor="end" dominant-baseline="middle" font-family="Helvetica" font-size="6" font-weight="regular" fill="black">read_enable</text>
        <line x1="170" y1="55" x2="202" y2="55" stroke="black" stroke-width="1"/>
        <path d="M 164 55 l +6 +2.0 v -4 z" fill="black"/>
      <text x="35" y="65" text-anchor="start" dominant-baseline="middle" font-family="Helvetica" font-size="6" font-weight="regular" fill="black">write_data</text>
        <line x1="27" y1="65" x2="5" y2="65" stroke="black" stroke-width="1"/>
        <path d="M 33 65 l -6 +2.0 v -4 z" fill="black"/>
          <line x1="8" y1="63" x2="12" y2="67" stroke="black" stroke-width="1"/>
          <text x="19" y="62" text-anchor="middle" dominant-baseline="middle" font-family="Helvetica" font-size="4" font-weight="regular" fill="black">WIDTH</text>
      <text x="162" y="65" text-anchor="end" dominant-baseline="middle" font-family="Helvetica" font-size="6" font-weight="regular" fill="black">read_data</text>
        <line x1="164" y1="65" x2="196" y2="65" stroke="black" stroke-width="1"/>
        <path d="M 202 65 l -6 +2.0 v -4 z" fill="black"/>
          <line x1="167" y1="63" x2="171" y2="67" stroke="black" stroke-width="1"/>
          <text x="183" y="62" text-anchor="middle" dominant-baseline="middle" font-family="Helvetica" font-size="4" font-weight="regular" fill="black">WIDTH</text>
      <text x="35" y="75" text-anchor="start" dominant-baseline="middle" font-family="Helvetica" font-size="6" font-weight="regular" fill="black">write_full</text>
        <line x1="33" y1="75" x2="11" y2="75" stroke="black" stroke-width="1"/>
        <path d="M 5 75 l +6 +2.0 v -4 z" fill="black"/>
      <text x="162" y="75" text-anchor="end" dominant-baseline="middle" font-family="Helvetica" font-size="6" font-weight="regular" fill="black">read_empty</text>
        <line x1="164" y1="75" x2="196" y2="75" stroke="black" stroke-width="1"/>
        <path d="M 202 75 l -6 +2.0 v -4 z" fill="black"/>
      <text x="162" y="85" text-anchor="end" dominant-baseline="middle" font-family="Helvetica" font-size="6" font-weight="regular" fill="black">memory_write_clock</text>
        <line x1="164" y1="85" x2="196" y2="85" stroke="black" stroke-width="1"/>
        <path d="M 202 85 l -6 +2.0 v -4 z" fill="black"/>
      <text x="162" y="95" text-anchor="end" dominant-baseline="middle" font-family="Helvetica" font-size="6" font-weight="regular" fill="black">memory_write_enable</text>
        <line x1="164" y1="95" x2="196" y2="95" stroke="black" stroke-width="1"/>
        <path d="M 202 95 l -6 +2.0 v -4 z" fill="black"/>
      <text x="162" y="105" text-anchor="end" dominant-baseline="middle" font-family="Helvetica" font-size="6" font-weight="regular" fill="black">memory_write_address</text>
        <line x1="164" y1="105" x2="196" y2="105" stroke="black" stroke-width="1"/>
        <path d="M 202 105 l -6 +2.0 v -4 z" fill="black"/>
          <line x1="167" y1="103" x2="171" y2="107" stroke="black" stroke-width="1"/>
          <text x="183" y="102" text-anchor="middle" dominant-baseline="middle" font-family="Helvetica" font-size="4" font-weight="regular" fill="black">log₂(DEPTH)</text>
      <text x="162" y="115" text-anchor="end" dominant-baseline="middle" font-family="Helvetica" font-size="6" font-weight="regular" fill="black">memory_write_data</text>
        <line x1="164" y1="115" x2="196" y2="115" stroke="black" stroke-width="1"/>
        <path d="M 202 115 l -6 +2.0 v -4 z" fill="black"/>
          <line x1="167" y1="113" x2="171" y2="117" stroke="black" stroke-width="1"/>
          <text x="183" y="112" text-anchor="middle" dominant-baseline="middle" font-family="Helvetica" font-size="4" font-weight="regular" fill="black">WIDTH</text>
      <text x="162" y="125" text-anchor="end" dominant-baseline="middle" font-family="Helvetica" font-size="6" font-weight="regular" fill="black">memory_read_clock</text>
        <line x1="164" y1="125" x2="196" y2="125" stroke="black" stroke-width="1"/>
        <path d="M 202 125 l -6 +2.0 v -4 z" fill="black"/>
      <text x="162" y="135" text-anchor="end" dominant-baseline="middle" font-family="Helvetica" font-size="6" font-weight="regular" fill="black">memory_read_enable</text>
        <line x1="164" y1="135" x2="196" y2="135" stroke="black" stroke-width="1"/>
        <path d="M 202 135 l -6 +2.0 v -4 z" fill="black"/>
      <text x="162" y="145" text-anchor="end" dominant-baseline="middle" font-family="Helvetica" font-size="6" font-weight="regular" fill="black">memory_read_address</text>
        <line x1="164" y1="145" x2="196" y2="145" stroke="black" stroke-width="1"/>
        <path d="M 202 145 l -6 +2.0 v -4 z" fill="black"/>
          <line x1="167" y1="143" x2="171" y2="147" stroke="black" stroke-width="1"/>
          <text x="183" y="142" text-anchor="middle" dominant-baseline="middle" font-family="Helvetica" font-size="4" font-weight="regular" fill="black">log₂(DEPTH)</text>
      <text x="162" y="155" text-anchor="end" dominant-baseline="middle" font-family="Helvetica" font-size="6" font-weight="regular" fill="black">memory_read_data</text>
        <line x1="170" y1="155" x2="202" y2="155" stroke="black" stroke-width="1"/>
        <path d="M 164 155 l +6 +2.0 v -4 z" fill="black"/>
          <line x1="195" y1="153" x2="199" y2="157" stroke="black" stroke-width="1"/>
          <text x="183" y="152" text-anchor="middle" dominant-baseline="middle" font-family="Helvetica" font-size="4" font-weight="regular" fill="black">WIDTH</text>
    <style>
      @media (prefers-color-scheme: dark) {
        :root {
          filter: invert(100%) hue-rotate(180deg);
        }
      }
    </style>
</svg>