<svg width="362" height="340" viewBox="0 0 181 170" xmlns="http://www.w3.org/2000/svg">
  <rect x="25" y="5" width="131" height="160" fill="none" stroke="black" stroke-width="1" rx="5"/>
  <text x="90" y="12" text-anchor="middle" dominant-baseline="middle" font-family="Helvetica" font-size="8" font-weight="bold" fill="black">Asynchronous FIFO Controller</text>
  <text x="90" y="21" text-anchor="middle" dominant-baseline="middle" font-family="Helvetica" font-size="6" font-weight="regular" fill="black">asynchronous_fifo_controller</text>
      <text x="27" y="35" text-anchor="start" dominant-baseline="middle" font-family="Helvetica" font-size="6" font-weight="regular" fill="black">write_clock</text>
        <line x1="19" y1="35" x2="5" y2="35" stroke="black" stroke-width="1"/>
        <path d="M 25 35 l -6 +2.0 v -4 z" fill="black"/>
      <text x="154" y="35" text-anchor="end" dominant-baseline="middle" font-family="Helvetica" font-size="6" font-weight="regular" fill="black">read_clock</text>
        <line x1="162" y1="35" x2="176" y2="35" stroke="black" stroke-width="1"/>
        <path d="M 156 35 l +6 +2.0 v -4 z" fill="black"/>
      <text x="27" y="45" text-anchor="start" dominant-baseline="middle" font-family="Helvetica" font-size="6" font-weight="regular" fill="black">write_resetn</text>
        <line x1="19" y1="45" x2="5" y2="45" stroke="black" stroke-width="1"/>
        <path d="M 25 45 l -6 +2.0 v -4 z" fill="black"/>
      <text x="154" y="45" text-anchor="end" dominant-baseline="middle" font-family="Helvetica" font-size="6" font-weight="regular" fill="black">read_resetn</text>
        <line x1="162" y1="45" x2="176" y2="45" stroke="black" stroke-width="1"/>
        <path d="M 156 45 l +6 +2.0 v -4 z" fill="black"/>
      <text x="27" y="55" text-anchor="start" dominant-baseline="middle" font-family="Helvetica" font-size="6" font-weight="regular" fill="black">write_enable</text>
        <line x1="19" y1="55" x2="5" y2="55" stroke="black" stroke-width="1"/>
        <path d="M 25 55 l -6 +2.0 v -4 z" fill="black"/>
      <text x="154" y="55" text-anchor="end" dominant-baseline="middle" font-family="Helvetica" font-size="6" font-weight="regular" fill="black">read_enable</text>
        <line x1="162" y1="55" x2="176" y2="55" stroke="black" stroke-width="1"/>
        <path d="M 156 55 l +6 +2.0 v -4 z" fill="black"/>
      <text x="27" y="65" text-anchor="start" dominant-baseline="middle" font-family="Helvetica" font-size="6" font-weight="regular" fill="black">write_data</text>
        <line x1="19" y1="65" x2="5" y2="65" stroke="black" stroke-width="1"/>
        <path d="M 25 65 l -6 +2.0 v -4 z" fill="black"/>
          <line x1="8" y1="63" x2="12" y2="67" stroke="black" stroke-width="1"/>
      <text x="154" y="65" text-anchor="end" dominant-baseline="middle" font-family="Helvetica" font-size="6" font-weight="regular" fill="black">read_data</text>
        <line x1="156" y1="65" x2="170" y2="65" stroke="black" stroke-width="1"/>
        <path d="M 176 65 l -6 +2.0 v -4 z" fill="black"/>
          <line x1="159" y1="63" x2="163" y2="67" stroke="black" stroke-width="1"/>
      <text x="27" y="75" text-anchor="start" dominant-baseline="middle" font-family="Helvetica" font-size="6" font-weight="regular" fill="black">write_full</text>
        <line x1="25" y1="75" x2="11" y2="75" stroke="black" stroke-width="1"/>
        <path d="M 5 75 l +6 +2.0 v -4 z" fill="black"/>
      <text x="154" y="75" text-anchor="end" dominant-baseline="middle" font-family="Helvetica" font-size="6" font-weight="regular" fill="black">read_empty</text>
        <line x1="156" y1="75" x2="170" y2="75" stroke="black" stroke-width="1"/>
        <path d="M 176 75 l -6 +2.0 v -4 z" fill="black"/>
      <text x="154" y="85" text-anchor="end" dominant-baseline="middle" font-family="Helvetica" font-size="6" font-weight="regular" fill="black">memory_write_clock</text>
        <line x1="156" y1="85" x2="170" y2="85" stroke="black" stroke-width="1"/>
        <path d="M 176 85 l -6 +2.0 v -4 z" fill="black"/>
      <text x="154" y="95" text-anchor="end" dominant-baseline="middle" font-family="Helvetica" font-size="6" font-weight="regular" fill="black">memory_write_enable</text>
        <line x1="156" y1="95" x2="170" y2="95" stroke="black" stroke-width="1"/>
        <path d="M 176 95 l -6 +2.0 v -4 z" fill="black"/>
      <text x="154" y="105" text-anchor="end" dominant-baseline="middle" font-family="Helvetica" font-size="6" font-weight="regular" fill="black">memory_write_address</text>
        <line x1="156" y1="105" x2="170" y2="105" stroke="black" stroke-width="1"/>
        <path d="M 176 105 l -6 +2.0 v -4 z" fill="black"/>
          <line x1="159" y1="103" x2="163" y2="107" stroke="black" stroke-width="1"/>
      <text x="154" y="115" text-anchor="end" dominant-baseline="middle" font-family="Helvetica" font-size="6" font-weight="regular" fill="black">memory_write_data</text>
        <line x1="156" y1="115" x2="170" y2="115" stroke="black" stroke-width="1"/>
        <path d="M 176 115 l -6 +2.0 v -4 z" fill="black"/>
          <line x1="159" y1="113" x2="163" y2="117" stroke="black" stroke-width="1"/>
      <text x="154" y="125" text-anchor="end" dominant-baseline="middle" font-family="Helvetica" font-size="6" font-weight="regular" fill="black">memory_read_clock</text>
        <line x1="156" y1="125" x2="170" y2="125" stroke="black" stroke-width="1"/>
        <path d="M 176 125 l -6 +2.0 v -4 z" fill="black"/>
      <text x="154" y="135" text-anchor="end" dominant-baseline="middle" font-family="Helvetica" font-size="6" font-weight="regular" fill="black">memory_read_enable</text>
        <line x1="156" y1="135" x2="170" y2="135" stroke="black" stroke-width="1"/>
        <path d="M 176 135 l -6 +2.0 v -4 z" fill="black"/>
      <text x="154" y="145" text-anchor="end" dominant-baseline="middle" font-family="Helvetica" font-size="6" font-weight="regular" fill="black">memory_read_address</text>
        <line x1="156" y1="145" x2="170" y2="145" stroke="black" stroke-width="1"/>
        <path d="M 176 145 l -6 +2.0 v -4 z" fill="black"/>
          <line x1="159" y1="143" x2="163" y2="147" stroke="black" stroke-width="1"/>
      <text x="154" y="155" text-anchor="end" dominant-baseline="middle" font-family="Helvetica" font-size="6" font-weight="regular" fill="black">memory_read_data</text>
        <line x1="162" y1="155" x2="176" y2="155" stroke="black" stroke-width="1"/>
        <path d="M 156 155 l +6 +2.0 v -4 z" fill="black"/>
          <line x1="169" y1="153" x2="173" y2="157" stroke="black" stroke-width="1"/>
    <style>
      @media (prefers-color-scheme: dark) {
        :root {
          filter: invert(100%) hue-rotate(180deg);
        }
      }
    </style>
</svg>