<svg width="396" height="160" viewBox="0 0 198 80" xmlns="http://www.w3.org/2000/svg">
  <rect x="67" y="5" width="102" height="70" fill="none" stroke="black" stroke-width="1" rx="5"/>
  <text x="118" y="12" text-anchor="middle" dominant-baseline="middle" font-family="Helvetica" font-size="8" font-weight="bold" fill="black">Dynamic Priority Arbiter</text>
  <text x="118" y="21" text-anchor="middle" dominant-baseline="middle" font-family="Helvetica" font-size="6" font-weight="regular" fill="black">dynamic_priority_arbiter</text>
      <text x="69" y="35" text-anchor="start" dominant-baseline="middle" font-family="Helvetica" font-size="6" font-weight="regular" fill="black">clock</text>
        <line x1="61" y1="35" x2="5" y2="35" stroke="black" stroke-width="1"/>
        <path d="M 67 35 l -6 +2.0 v -4 z" fill="black"/>
      <text x="69" y="45" text-anchor="start" dominant-baseline="middle" font-family="Helvetica" font-size="6" font-weight="regular" fill="black">resetn</text>
        <line x1="61" y1="45" x2="5" y2="45" stroke="black" stroke-width="1"/>
        <path d="M 67 45 l -6 +2.0 v -4 z" fill="black"/>
      <text x="69" y="55" text-anchor="start" dominant-baseline="middle" font-family="Helvetica" font-size="6" font-weight="regular" fill="black">requests</text>
        <line x1="61" y1="55" x2="5" y2="55" stroke="black" stroke-width="1"/>
        <path d="M 67 55 l -6 +2.0 v -4 z" fill="black"/>
          <line x1="8" y1="53" x2="12" y2="57" stroke="black" stroke-width="1"/>
          <text x="36" y="52" text-anchor="middle" dominant-baseline="middle" font-family="Helvetica" font-size="4" font-weight="regular" fill="black">SIZE</text>
      <text x="167" y="55" text-anchor="end" dominant-baseline="middle" font-family="Helvetica" font-size="6" font-weight="regular" fill="black">grant</text>
        <line x1="169" y1="55" x2="187" y2="55" stroke="black" stroke-width="1"/>
        <path d="M 193 55 l -6 +2.0 v -4 z" fill="black"/>
          <line x1="172" y1="53" x2="176" y2="57" stroke="black" stroke-width="1"/>
          <text x="181" y="52" text-anchor="middle" dominant-baseline="middle" font-family="Helvetica" font-size="4" font-weight="regular" fill="black">SIZE</text>
      <text x="69" y="65" text-anchor="start" dominant-baseline="middle" font-family="Helvetica" font-size="6" font-weight="regular" fill="black">priorities</text>
        <line x1="61" y1="65" x2="5" y2="65" stroke="black" stroke-width="1"/>
        <path d="M 67 65 l -6 +2.0 v -4 z" fill="black"/>
          <line x1="8" y1="63" x2="12" y2="67" stroke="black" stroke-width="1"/>
          <text x="36" y="62" text-anchor="middle" dominant-baseline="middle" font-family="Helvetica" font-size="4" font-weight="regular" fill="black">SIZE×PRIORITY_WIDTH</text>
    <style>
      @media (prefers-color-scheme: dark) {
        :root {
          filter: invert(100%) hue-rotate(180deg);
        }
      }
    </style>
</svg>