<svg width="298" height="180" viewBox="0 0 149 90" xmlns="http://www.w3.org/2000/svg">
  <rect x="43" y="5" width="73" height="80" fill="none" stroke="black" stroke-width="1" rx="5"/>
  <text x="79" y="12" text-anchor="middle" dominant-baseline="middle" font-family="Helvetica" font-size="8" font-weight="bold" fill="black">Single-Port RAM</text>
  <text x="79" y="21" text-anchor="middle" dominant-baseline="middle" font-family="Helvetica" font-size="6" font-weight="regular" fill="black">single_port_ram</text>
      <text x="45" y="35" text-anchor="start" dominant-baseline="middle" font-family="Helvetica" font-size="6" font-weight="regular" fill="black">clock</text>
        <line x1="37" y1="35" x2="5" y2="35" stroke="black" stroke-width="1"/>
        <path d="M 43 35 l -6 +2.0 v -4 z" fill="black"/>
      <text x="45" y="45" text-anchor="start" dominant-baseline="middle" font-family="Helvetica" font-size="6" font-weight="regular" fill="black">access_enable</text>
        <line x1="37" y1="45" x2="5" y2="45" stroke="black" stroke-width="1"/>
        <path d="M 43 45 l -6 +2.0 v -4 z" fill="black"/>
      <text x="45" y="55" text-anchor="start" dominant-baseline="middle" font-family="Helvetica" font-size="6" font-weight="regular" fill="black">write</text>
        <line x1="37" y1="55" x2="5" y2="55" stroke="black" stroke-width="1"/>
        <path d="M 43 55 l -6 +2.0 v -4 z" fill="black"/>
      <text x="45" y="65" text-anchor="start" dominant-baseline="middle" font-family="Helvetica" font-size="6" font-weight="regular" fill="black">address</text>
        <line x1="37" y1="65" x2="5" y2="65" stroke="black" stroke-width="1"/>
        <path d="M 43 65 l -6 +2.0 v -4 z" fill="black"/>
          <line x1="8" y1="63" x2="12" y2="67" stroke="black" stroke-width="1"/>
          <text x="24" y="62" text-anchor="middle" dominant-baseline="middle" font-family="Helvetica" font-size="4" font-weight="regular" fill="black">log₂(DEPTH)</text>
      <text x="45" y="75" text-anchor="start" dominant-baseline="middle" font-family="Helvetica" font-size="6" font-weight="regular" fill="black">write_data</text>
        <line x1="37" y1="75" x2="5" y2="75" stroke="black" stroke-width="1"/>
        <path d="M 43 75 l -6 +2.0 v -4 z" fill="black"/>
          <line x1="8" y1="73" x2="12" y2="77" stroke="black" stroke-width="1"/>
          <text x="24" y="72" text-anchor="middle" dominant-baseline="middle" font-family="Helvetica" font-size="4" font-weight="regular" fill="black">WIDTH</text>
      <text x="114" y="75" text-anchor="end" dominant-baseline="middle" font-family="Helvetica" font-size="6" font-weight="regular" fill="black">read_data</text>
        <line x1="116" y1="75" x2="138" y2="75" stroke="black" stroke-width="1"/>
        <path d="M 144 75 l -6 +2.0 v -4 z" fill="black"/>
          <line x1="119" y1="73" x2="123" y2="77" stroke="black" stroke-width="1"/>
          <text x="130" y="72" text-anchor="middle" dominant-baseline="middle" font-family="Helvetica" font-size="4" font-weight="regular" fill="black">WIDTH</text>
    <style>
      @media (prefers-color-scheme: dark) {
        :root {
          filter: invert(100%) hue-rotate(180deg);
        }
      }
    </style>
</svg>