<svg width="448" height="200" viewBox="0 0 224 100" xmlns="http://www.w3.org/2000/svg">
  <rect x="43" y="5" width="138" height="90" fill="none" stroke="black" stroke-width="1" rx="5"/>
  <text x="112" y="12" text-anchor="middle" dominant-baseline="middle" font-family="Helvetica" font-size="8" font-weight="bold" fill="black">True Dual-Port RAM</text>
  <text x="112" y="21" text-anchor="middle" dominant-baseline="middle" font-family="Helvetica" font-size="6" font-weight="regular" fill="black">true_dual_port_ram</text>
      <text x="45" y="35" text-anchor="start" dominant-baseline="middle" font-family="Helvetica" font-size="6" font-weight="regular" fill="black">clock</text>
        <line x1="37" y1="35" x2="5" y2="35" stroke="black" stroke-width="1"/>
        <path d="M 43 35 l -6 +2.0 v -4 z" fill="black"/>
      <text x="45" y="45" text-anchor="start" dominant-baseline="middle" font-family="Helvetica" font-size="6" font-weight="regular" fill="black">port_0_access_enable</text>
        <line x1="37" y1="45" x2="5" y2="45" stroke="black" stroke-width="1"/>
        <path d="M 43 45 l -6 +2.0 v -4 z" fill="black"/>
      <text x="179" y="45" text-anchor="end" dominant-baseline="middle" font-family="Helvetica" font-size="6" font-weight="regular" fill="black">port_1_access_enable</text>
        <line x1="187" y1="45" x2="219" y2="45" stroke="black" stroke-width="1"/>
        <path d="M 181 45 l +6 +2.0 v -4 z" fill="black"/>
      <text x="45" y="55" text-anchor="start" dominant-baseline="middle" font-family="Helvetica" font-size="6" font-weight="regular" fill="black">port_0_write</text>
        <line x1="37" y1="55" x2="5" y2="55" stroke="black" stroke-width="1"/>
        <path d="M 43 55 l -6 +2.0 v -4 z" fill="black"/>
      <text x="179" y="55" text-anchor="end" dominant-baseline="middle" font-family="Helvetica" font-size="6" font-weight="regular" fill="black">port_1_write</text>
        <line x1="187" y1="55" x2="219" y2="55" stroke="black" stroke-width="1"/>
        <path d="M 181 55 l +6 +2.0 v -4 z" fill="black"/>
      <text x="45" y="65" text-anchor="start" dominant-baseline="middle" font-family="Helvetica" font-size="6" font-weight="regular" fill="black">port_0_address</text>
        <line x1="37" y1="65" x2="5" y2="65" stroke="black" stroke-width="1"/>
        <path d="M 43 65 l -6 +2.0 v -4 z" fill="black"/>
          <line x1="8" y1="63" x2="12" y2="67" stroke="black" stroke-width="1"/>
          <text x="24" y="62" text-anchor="middle" dominant-baseline="middle" font-family="Helvetica" font-size="4" font-weight="regular" fill="black">log₂(DEPTH)</text>
      <text x="179" y="65" text-anchor="end" dominant-baseline="middle" font-family="Helvetica" font-size="6" font-weight="regular" fill="black">port_1_address</text>
        <line x1="187" y1="65" x2="219" y2="65" stroke="black" stroke-width="1"/>
        <path d="M 181 65 l +6 +2.0 v -4 z" fill="black"/>
          <line x1="212" y1="63" x2="216" y2="67" stroke="black" stroke-width="1"/>
          <text x="200" y="62" text-anchor="middle" dominant-baseline="middle" font-family="Helvetica" font-size="4" font-weight="regular" fill="black">log₂(DEPTH)</text>
      <text x="45" y="75" text-anchor="start" dominant-baseline="middle" font-family="Helvetica" font-size="6" font-weight="regular" fill="black">port_0_write_data</text>
        <line x1="37" y1="75" x2="5" y2="75" stroke="black" stroke-width="1"/>
        <path d="M 43 75 l -6 +2.0 v -4 z" fill="black"/>
          <line x1="8" y1="73" x2="12" y2="77" stroke="black" stroke-width="1"/>
          <text x="24" y="72" text-anchor="middle" dominant-baseline="middle" font-family="Helvetica" font-size="4" font-weight="regular" fill="black">WIDTH</text>
      <text x="179" y="75" text-anchor="end" dominant-baseline="middle" font-family="Helvetica" font-size="6" font-weight="regular" fill="black">port_1_write_data</text>
        <line x1="187" y1="75" x2="219" y2="75" stroke="black" stroke-width="1"/>
        <path d="M 181 75 l +6 +2.0 v -4 z" fill="black"/>
          <line x1="212" y1="73" x2="216" y2="77" stroke="black" stroke-width="1"/>
          <text x="200" y="72" text-anchor="middle" dominant-baseline="middle" font-family="Helvetica" font-size="4" font-weight="regular" fill="black">WIDTH</text>
      <text x="45" y="85" text-anchor="start" dominant-baseline="middle" font-family="Helvetica" font-size="6" font-weight="regular" fill="black">port_0_read_data</text>
        <line x1="43" y1="85" x2="11" y2="85" stroke="black" stroke-width="1"/>
        <path d="M 5 85 l +6 +2.0 v -4 z" fill="black"/>
          <line x1="36" y1="83" x2="40" y2="87" stroke="black" stroke-width="1"/>
          <text x="24" y="82" text-anchor="middle" dominant-baseline="middle" font-family="Helvetica" font-size="4" font-weight="regular" fill="black">WIDTH</text>
      <text x="179" y="85" text-anchor="end" dominant-baseline="middle" font-family="Helvetica" font-size="6" font-weight="regular" fill="black">port_1_read_data</text>
        <line x1="181" y1="85" x2="213" y2="85" stroke="black" stroke-width="1"/>
        <path d="M 219 85 l -6 +2.0 v -4 z" fill="black"/>
          <line x1="184" y1="83" x2="188" y2="87" stroke="black" stroke-width="1"/>
          <text x="200" y="82" text-anchor="middle" dominant-baseline="middle" font-family="Helvetica" font-size="4" font-weight="regular" fill="black">WIDTH</text>
    <style>
      @media (prefers-color-scheme: dark) {
        :root {
          filter: invert(100%) hue-rotate(180deg);
        }
      }
    </style>
</svg>