<svg width="418" height="160" viewBox="0 0 209 80" xmlns="http://www.w3.org/2000/svg">
  <rect x="33" y="5" width="143" height="70" fill="none" stroke="black" stroke-width="1" rx="5"/>
  <text x="104" y="12" text-anchor="middle" dominant-baseline="middle" font-family="Helvetica" font-size="8" font-weight="bold" fill="black">Closed-Loop Vector Synchronizer</text>
  <text x="104" y="21" text-anchor="middle" dominant-baseline="middle" font-family="Helvetica" font-size="6" font-weight="regular" fill="black">closed_loop_vector_synchronizer</text>
      <text x="35" y="35" text-anchor="start" dominant-baseline="middle" font-family="Helvetica" font-size="6" font-weight="regular" fill="black">source_clock</text>
        <line x1="27" y1="35" x2="5" y2="35" stroke="black" stroke-width="1"/>
        <path d="M 33 35 l -6 +2.0 v -4 z" fill="black"/>
      <text x="174" y="35" text-anchor="end" dominant-baseline="middle" font-family="Helvetica" font-size="6" font-weight="regular" fill="black">destination_clock</text>
        <line x1="182" y1="35" x2="204" y2="35" stroke="black" stroke-width="1"/>
        <path d="M 176 35 l +6 +2.0 v -4 z" fill="black"/>
      <text x="35" y="45" text-anchor="start" dominant-baseline="middle" font-family="Helvetica" font-size="6" font-weight="regular" fill="black">source_resetn</text>
        <line x1="27" y1="45" x2="5" y2="45" stroke="black" stroke-width="1"/>
        <path d="M 33 45 l -6 +2.0 v -4 z" fill="black"/>
      <text x="174" y="45" text-anchor="end" dominant-baseline="middle" font-family="Helvetica" font-size="6" font-weight="regular" fill="black">destination_resetn</text>
        <line x1="182" y1="45" x2="204" y2="45" stroke="black" stroke-width="1"/>
        <path d="M 176 45 l +6 +2.0 v -4 z" fill="black"/>
      <text x="35" y="55" text-anchor="start" dominant-baseline="middle" font-family="Helvetica" font-size="6" font-weight="regular" fill="black">data_in</text>
        <line x1="27" y1="55" x2="5" y2="55" stroke="black" stroke-width="1"/>
        <path d="M 33 55 l -6 +2.0 v -4 z" fill="black"/>
          <line x1="8" y1="53" x2="12" y2="57" stroke="black" stroke-width="1"/>
          <text x="19" y="52" text-anchor="middle" dominant-baseline="middle" font-family="Helvetica" font-size="4" font-weight="regular" fill="black">WIDTH</text>
      <text x="174" y="55" text-anchor="end" dominant-baseline="middle" font-family="Helvetica" font-size="6" font-weight="regular" fill="black">data_out</text>
        <line x1="176" y1="55" x2="198" y2="55" stroke="black" stroke-width="1"/>
        <path d="M 204 55 l -6 +2.0 v -4 z" fill="black"/>
          <line x1="179" y1="53" x2="183" y2="57" stroke="black" stroke-width="1"/>
          <text x="190" y="52" text-anchor="middle" dominant-baseline="middle" font-family="Helvetica" font-size="4" font-weight="regular" fill="black">WIDTH</text>
      <text x="35" y="65" text-anchor="start" dominant-baseline="middle" font-family="Helvetica" font-size="6" font-weight="regular" fill="black">busy</text>
        <line x1="33" y1="65" x2="11" y2="65" stroke="black" stroke-width="1"/>
        <path d="M 5 65 l +6 +2.0 v -4 z" fill="black"/>
    <style>
      @media (prefers-color-scheme: dark) {
        :root {
          filter: invert(100%) hue-rotate(180deg);
        }
      }
    </style>
</svg>