<svg width="386" height="160" viewBox="0 0 193 80" xmlns="http://www.w3.org/2000/svg">
  <rect x="25" y="5" width="143" height="70" fill="none" stroke="black" stroke-width="1" rx="5"/>
  <text x="96" y="12" text-anchor="middle" dominant-baseline="middle" font-family="Helvetica" font-size="8" font-weight="bold" fill="black">Closed-Loop Vector Synchronizer</text>
  <text x="96" y="21" text-anchor="middle" dominant-baseline="middle" font-family="Helvetica" font-size="6" font-weight="regular" fill="black">closed_loop_vector_synchronizer</text>
      <text x="27" y="35" text-anchor="start" dominant-baseline="middle" font-family="Helvetica" font-size="6" font-weight="regular" fill="black">source_clock</text>
        <line x1="19" y1="35" x2="5" y2="35" stroke="black" stroke-width="1"/>
        <path d="M 25 35 l -6 +2.0 v -4 z" fill="black"/>
      <text x="166" y="35" text-anchor="end" dominant-baseline="middle" font-family="Helvetica" font-size="6" font-weight="regular" fill="black">destination_clock</text>
        <line x1="174" y1="35" x2="188" y2="35" stroke="black" stroke-width="1"/>
        <path d="M 168 35 l +6 +2.0 v -4 z" fill="black"/>
      <text x="27" y="45" text-anchor="start" dominant-baseline="middle" font-family="Helvetica" font-size="6" font-weight="regular" fill="black">source_resetn</text>
        <line x1="19" y1="45" x2="5" y2="45" stroke="black" stroke-width="1"/>
        <path d="M 25 45 l -6 +2.0 v -4 z" fill="black"/>
      <text x="166" y="45" text-anchor="end" dominant-baseline="middle" font-family="Helvetica" font-size="6" font-weight="regular" fill="black">destination_resetn</text>
        <line x1="174" y1="45" x2="188" y2="45" stroke="black" stroke-width="1"/>
        <path d="M 168 45 l +6 +2.0 v -4 z" fill="black"/>
      <text x="27" y="55" text-anchor="start" dominant-baseline="middle" font-family="Helvetica" font-size="6" font-weight="regular" fill="black">data_in</text>
        <line x1="19" y1="55" x2="5" y2="55" stroke="black" stroke-width="1"/>
        <path d="M 25 55 l -6 +2.0 v -4 z" fill="black"/>
          <line x1="8" y1="53" x2="12" y2="57" stroke="black" stroke-width="1"/>
      <text x="166" y="55" text-anchor="end" dominant-baseline="middle" font-family="Helvetica" font-size="6" font-weight="regular" fill="black">data_out</text>
        <line x1="168" y1="55" x2="182" y2="55" stroke="black" stroke-width="1"/>
        <path d="M 188 55 l -6 +2.0 v -4 z" fill="black"/>
          <line x1="171" y1="53" x2="175" y2="57" stroke="black" stroke-width="1"/>
      <text x="27" y="65" text-anchor="start" dominant-baseline="middle" font-family="Helvetica" font-size="6" font-weight="regular" fill="black">busy</text>
        <line x1="25" y1="65" x2="11" y2="65" stroke="black" stroke-width="1"/>
        <path d="M 5 65 l +6 +2.0 v -4 z" fill="black"/>
    <style>
      @media (prefers-color-scheme: dark) {
        :root {
          filter: invert(100%) hue-rotate(180deg);
        }
      }
    </style>
</svg>