<svg width="366" height="140" viewBox="0 0 183 70" xmlns="http://www.w3.org/2000/svg">
  <rect x="25" y="5" width="133" height="60" fill="white" stroke="black" stroke-width="1" rx="5"/>
  <text x="91" y="12" text-anchor="middle" dominant-baseline="middle" font-family="Helvetica" font-size="8" font-weight="bold" fill="black">Registered Vector Synchronizer</text>
  <text x="91" y="21" text-anchor="middle" dominant-baseline="middle" font-family="Helvetica" font-size="6" font-weight="regular" fill="black">registered_vector_synchronizer</text>
      <text x="27" y="35" text-anchor="start" dominant-baseline="middle" font-family="Helvetica" font-size="6" font-weight="regular" fill="black">source_clock</text>
        <line x1="19" y1="35" x2="5" y2="35" stroke="black" stroke-width="1"/>
        <path d="M 25 35 l -6 +2.0 v -4 z" fill="black"/>
      <text x="156" y="35" text-anchor="end" dominant-baseline="middle" font-family="Helvetica" font-size="6" font-weight="regular" fill="black">destination_clock</text>
        <line x1="164" y1="35" x2="178" y2="35" stroke="black" stroke-width="1"/>
        <path d="M 158 35 l +6 +2.0 v -4 z" fill="black"/>
      <text x="27" y="45" text-anchor="start" dominant-baseline="middle" font-family="Helvetica" font-size="6" font-weight="regular" fill="black">source_resetn</text>
        <line x1="19" y1="45" x2="5" y2="45" stroke="black" stroke-width="1"/>
        <path d="M 25 45 l -6 +2.0 v -4 z" fill="black"/>
      <text x="156" y="45" text-anchor="end" dominant-baseline="middle" font-family="Helvetica" font-size="6" font-weight="regular" fill="black">destination_resetn</text>
        <line x1="164" y1="45" x2="178" y2="45" stroke="black" stroke-width="1"/>
        <path d="M 158 45 l +6 +2.0 v -4 z" fill="black"/>
      <text x="27" y="55" text-anchor="start" dominant-baseline="middle" font-family="Helvetica" font-size="6" font-weight="regular" fill="black">data_in</text>
        <line x1="19" y1="55" x2="5" y2="55" stroke="black" stroke-width="1"/>
        <path d="M 25 55 l -6 +2.0 v -4 z" fill="black"/>
          <line x1="8" y1="53" x2="12" y2="57" stroke="black" stroke-width="1"/>
      <text x="156" y="55" text-anchor="end" dominant-baseline="middle" font-family="Helvetica" font-size="6" font-weight="regular" fill="black">data_out</text>
        <line x1="158" y1="55" x2="172" y2="55" stroke="black" stroke-width="1"/>
        <path d="M 178 55 l -6 +2.0 v -4 z" fill="black"/>
          <line x1="161" y1="53" x2="165" y2="57" stroke="black" stroke-width="1"/>
    <style>
      @media (prefers-color-scheme: dark) {
        :root {
          filter: invert(100%) hue-rotate(180deg);
        }
      }
    </style>
</svg>