<svg width="472" height="160" viewBox="0 0 236 80" xmlns="http://www.w3.org/2000/svg">
  <rect x="52" y="5" width="124" height="70" fill="none" stroke="black" stroke-width="1" rx="5"/>
  <text x="114" y="12" text-anchor="middle" dominant-baseline="middle" font-family="Helvetica" font-size="8" font-weight="bold" fill="black">Extented Hamming Corrector</text>
  <text x="114" y="21" text-anchor="middle" dominant-baseline="middle" font-family="Helvetica" font-size="6" font-weight="regular" fill="black">extended_hamming_corrector</text>
      <text x="54" y="35" text-anchor="start" dominant-baseline="middle" font-family="Helvetica" font-size="6" font-weight="regular" fill="black">data</text>
        <line x1="46" y1="35" x2="5" y2="35" stroke="black" stroke-width="1"/>
        <path d="M 52 35 l -6 +2.0 v -4 z" fill="black"/>
          <line x1="8" y1="33" x2="12" y2="37" stroke="black" stroke-width="1"/>
          <text x="28" y="32" text-anchor="middle" dominant-baseline="middle" font-family="Helvetica" font-size="4" font-weight="regular" fill="black">DATA_WIDTH</text>
      <text x="174" y="35" text-anchor="end" dominant-baseline="middle" font-family="Helvetica" font-size="6" font-weight="regular" fill="black">corrected_data</text>
        <line x1="176" y1="35" x2="225" y2="35" stroke="black" stroke-width="1"/>
        <path d="M 231 35 l -6 +2.0 v -4 z" fill="black"/>
          <line x1="179" y1="33" x2="183" y2="37" stroke="black" stroke-width="1"/>
          <text x="203" y="32" text-anchor="middle" dominant-baseline="middle" font-family="Helvetica" font-size="4" font-weight="regular" fill="black">DATA_WIDTH</text>
      <text x="54" y="45" text-anchor="start" dominant-baseline="middle" font-family="Helvetica" font-size="6" font-weight="regular" fill="black">code</text>
        <line x1="46" y1="45" x2="5" y2="45" stroke="black" stroke-width="1"/>
        <path d="M 52 45 l -6 +2.0 v -4 z" fill="black"/>
          <line x1="8" y1="43" x2="12" y2="47" stroke="black" stroke-width="1"/>
          <text x="28" y="42" text-anchor="middle" dominant-baseline="middle" font-family="Helvetica" font-size="4" font-weight="regular" fill="black">PARITY_WIDTH</text>
      <text x="174" y="45" text-anchor="end" dominant-baseline="middle" font-family="Helvetica" font-size="6" font-weight="regular" fill="black">corrected_error_position</text>
        <line x1="176" y1="45" x2="225" y2="45" stroke="black" stroke-width="1"/>
        <path d="M 231 45 l -6 +2.0 v -4 z" fill="black"/>
          <line x1="179" y1="43" x2="183" y2="47" stroke="black" stroke-width="1"/>
          <text x="203" y="42" text-anchor="middle" dominant-baseline="middle" font-family="Helvetica" font-size="4" font-weight="regular" fill="black">log₂(BLOCK_WIDTH)</text>
      <text x="174" y="55" text-anchor="end" dominant-baseline="middle" font-family="Helvetica" font-size="6" font-weight="regular" fill="black">correctable_error</text>
        <line x1="176" y1="55" x2="225" y2="55" stroke="black" stroke-width="1"/>
        <path d="M 231 55 l -6 +2.0 v -4 z" fill="black"/>
      <text x="174" y="65" text-anchor="end" dominant-baseline="middle" font-family="Helvetica" font-size="6" font-weight="regular" fill="black">uncorrectable_error</text>
        <line x1="176" y1="65" x2="225" y2="65" stroke="black" stroke-width="1"/>
        <path d="M 231 65 l -6 +2.0 v -4 z" fill="black"/>
    <style>
      @media (prefers-color-scheme: dark) {
        :root {
          filter: invert(100%) hue-rotate(180deg);
        }
      }
    </style>
</svg>