<svg width="472" height="200" viewBox="0 0 236 100" xmlns="http://www.w3.org/2000/svg">
  <rect x="43" y="5" width="150" height="90" fill="none" stroke="black" stroke-width="1" rx="5"/>
  <text x="118" y="12" text-anchor="middle" dominant-baseline="middle" font-family="Helvetica" font-size="8" font-weight="bold" fill="black">Asynchronous True Dual-Port RAM</text>
  <text x="118" y="21" text-anchor="middle" dominant-baseline="middle" font-family="Helvetica" font-size="6" font-weight="regular" fill="black">asynchronous_true_dual_port_ram</text>
      <text x="45" y="35" text-anchor="start" dominant-baseline="middle" font-family="Helvetica" font-size="6" font-weight="regular" fill="black">port_0_clock</text>
        <line x1="37" y1="35" x2="5" y2="35" stroke="black" stroke-width="1"/>
        <path d="M 43 35 l -6 +2.0 v -4 z" fill="black"/>
      <text x="191" y="35" text-anchor="end" dominant-baseline="middle" font-family="Helvetica" font-size="6" font-weight="regular" fill="black">port_1_clock</text>
        <line x1="199" y1="35" x2="231" y2="35" stroke="black" stroke-width="1"/>
        <path d="M 193 35 l +6 +2.0 v -4 z" fill="black"/>
      <text x="45" y="45" text-anchor="start" dominant-baseline="middle" font-family="Helvetica" font-size="6" font-weight="regular" fill="black">port_0_access_enable</text>
        <line x1="37" y1="45" x2="5" y2="45" stroke="black" stroke-width="1"/>
        <path d="M 43 45 l -6 +2.0 v -4 z" fill="black"/>
      <text x="191" y="45" text-anchor="end" dominant-baseline="middle" font-family="Helvetica" font-size="6" font-weight="regular" fill="black">port_1_access_enable</text>
        <line x1="199" y1="45" x2="231" y2="45" stroke="black" stroke-width="1"/>
        <path d="M 193 45 l +6 +2.0 v -4 z" fill="black"/>
      <text x="45" y="55" text-anchor="start" dominant-baseline="middle" font-family="Helvetica" font-size="6" font-weight="regular" fill="black">port_0_write</text>
        <line x1="37" y1="55" x2="5" y2="55" stroke="black" stroke-width="1"/>
        <path d="M 43 55 l -6 +2.0 v -4 z" fill="black"/>
      <text x="191" y="55" text-anchor="end" dominant-baseline="middle" font-family="Helvetica" font-size="6" font-weight="regular" fill="black">port_1_write</text>
        <line x1="199" y1="55" x2="231" y2="55" stroke="black" stroke-width="1"/>
        <path d="M 193 55 l +6 +2.0 v -4 z" fill="black"/>
      <text x="45" y="65" text-anchor="start" dominant-baseline="middle" font-family="Helvetica" font-size="6" font-weight="regular" fill="black">port_0_address</text>
        <line x1="37" y1="65" x2="5" y2="65" stroke="black" stroke-width="1"/>
        <path d="M 43 65 l -6 +2.0 v -4 z" fill="black"/>
          <line x1="8" y1="63" x2="12" y2="67" stroke="black" stroke-width="1"/>
          <text x="24" y="62" text-anchor="middle" dominant-baseline="middle" font-family="Helvetica" font-size="4" font-weight="regular" fill="black">log₂(DEPTH)</text>
      <text x="191" y="65" text-anchor="end" dominant-baseline="middle" font-family="Helvetica" font-size="6" font-weight="regular" fill="black">port_1_address</text>
        <line x1="199" y1="65" x2="231" y2="65" stroke="black" stroke-width="1"/>
        <path d="M 193 65 l +6 +2.0 v -4 z" fill="black"/>
          <line x1="224" y1="63" x2="228" y2="67" stroke="black" stroke-width="1"/>
          <text x="212" y="62" text-anchor="middle" dominant-baseline="middle" font-family="Helvetica" font-size="4" font-weight="regular" fill="black">log₂(DEPTH)</text>
      <text x="45" y="75" text-anchor="start" dominant-baseline="middle" font-family="Helvetica" font-size="6" font-weight="regular" fill="black">port_0_write_data</text>
        <line x1="37" y1="75" x2="5" y2="75" stroke="black" stroke-width="1"/>
        <path d="M 43 75 l -6 +2.0 v -4 z" fill="black"/>
          <line x1="8" y1="73" x2="12" y2="77" stroke="black" stroke-width="1"/>
          <text x="24" y="72" text-anchor="middle" dominant-baseline="middle" font-family="Helvetica" font-size="4" font-weight="regular" fill="black">WIDTH</text>
      <text x="191" y="75" text-anchor="end" dominant-baseline="middle" font-family="Helvetica" font-size="6" font-weight="regular" fill="black">port_1_write_data</text>
        <line x1="199" y1="75" x2="231" y2="75" stroke="black" stroke-width="1"/>
        <path d="M 193 75 l +6 +2.0 v -4 z" fill="black"/>
          <line x1="224" y1="73" x2="228" y2="77" stroke="black" stroke-width="1"/>
          <text x="212" y="72" text-anchor="middle" dominant-baseline="middle" font-family="Helvetica" font-size="4" font-weight="regular" fill="black">WIDTH</text>
      <text x="45" y="85" text-anchor="start" dominant-baseline="middle" font-family="Helvetica" font-size="6" font-weight="regular" fill="black">port_0_read_data</text>
        <line x1="43" y1="85" x2="11" y2="85" stroke="black" stroke-width="1"/>
        <path d="M 5 85 l +6 +2.0 v -4 z" fill="black"/>
          <line x1="36" y1="83" x2="40" y2="87" stroke="black" stroke-width="1"/>
          <text x="24" y="82" text-anchor="middle" dominant-baseline="middle" font-family="Helvetica" font-size="4" font-weight="regular" fill="black">WIDTH</text>
      <text x="191" y="85" text-anchor="end" dominant-baseline="middle" font-family="Helvetica" font-size="6" font-weight="regular" fill="black">port_1_read_data</text>
        <line x1="193" y1="85" x2="225" y2="85" stroke="black" stroke-width="1"/>
        <path d="M 231 85 l -6 +2.0 v -4 z" fill="black"/>
          <line x1="196" y1="83" x2="200" y2="87" stroke="black" stroke-width="1"/>
          <text x="212" y="82" text-anchor="middle" dominant-baseline="middle" font-family="Helvetica" font-size="4" font-weight="regular" fill="black">WIDTH</text>
    <style>
      @media (prefers-color-scheme: dark) {
        :root {
          filter: invert(100%) hue-rotate(180deg);
        }
      }
    </style>
</svg>